# Blender v3.2.1 OBJ File: 'Seed packet.blend'
# www.blender.org
mtllib Pea_shooter_packet.mtl
o Cube
v 0.043350 4.036652 -0.825729
v 0.043350 -2.021443 -0.825729
v 0.043350 4.036652 0.825729
v 0.043350 -2.021443 0.825729
v -0.043350 4.036652 -0.825729
v -0.043350 -2.021443 -0.825729
v -0.043350 4.036652 0.825729
v -0.043350 -2.021443 0.825729
v 0.000000 -2.000350 -1.148958
v 0.000000 4.015559 1.148958
v 0.000000 -2.000350 1.148958
v 0.000000 4.015559 -1.148958
v 0.297075 1.007604 -1.155070
v -0.297075 1.007604 1.155070
v 0.297075 1.007604 1.155070
v -0.297075 1.007604 -1.155070
v 0.000000 1.007604 -2.328474
v 0.000000 1.007604 2.328474
v -0.297398 2.294316 1.155070
v 0.297398 2.294316 -1.155070
v 0.297398 2.294316 1.155070
v -0.297398 2.294316 -1.155070
v 0.000000 2.288796 -2.328474
v 0.000000 2.288796 2.328474
v -0.299032 3.116414 1.155070
v 0.299032 3.116414 -1.155070
v 0.299032 3.116414 1.155070
v -0.299032 3.116414 -1.155070
v 0.000000 3.087178 -2.328474
v 0.000000 3.087178 2.328474
v 0.297398 -0.279107 -1.155070
v 0.297398 -0.279107 1.155070
v -0.297398 -0.279107 -1.155070
v 0.000000 -0.273587 -2.328474
v 0.000000 -0.273587 2.328474
v -0.297398 -0.279107 1.155070
v 0.299032 -1.101205 -1.155070
v 0.299032 -1.101205 1.155070
v -0.299032 -1.101205 -1.155070
v 0.000000 -1.071969 -2.328474
v 0.000000 -1.071969 2.328474
v -0.299032 -1.101205 1.155070
v 0.204699 -1.786445 -1.155070
v 0.204699 -1.786445 1.155070
v -0.204699 -1.786445 -1.155070
v 0.000000 -1.708737 -2.328474
v 0.000000 -1.708737 2.328474
v -0.204699 -1.786445 1.155070
v -0.286113 -1.606077 1.155070
v 0.286113 -1.606077 -1.155070
v 0.286113 -1.606077 1.155070
v -0.286113 -1.606077 -1.155070
v 0.000000 -1.521261 -2.328474
v 0.000000 -1.521261 2.328474
v 0.252047 -1.701018 -1.155070
v 0.252047 -1.701018 1.155070
v -0.252047 -1.701018 -1.155070
v 0.000000 -1.617193 -2.328474
v 0.000000 -1.617193 2.328474
v -0.252047 -1.701018 1.155070
v -0.299691 -1.465287 1.155070
v 0.299691 -1.465286 -1.155070
v 0.299691 -1.465287 1.155070
v -0.299691 -1.465287 -1.155070
v 0.000000 -1.395024 -2.328474
v 0.000000 -1.395024 2.328474
v 0.091687 -1.966720 -1.101085
v 0.091687 -1.966720 1.101085
v -0.091687 -1.966720 -1.101085
v 0.000000 -1.911310 -2.154297
v 0.000000 -1.911310 2.154297
v -0.091687 -1.966720 1.101085
v -0.149236 -1.876887 1.152014
v 0.149236 -1.876887 -1.152014
v 0.149236 -1.876887 1.152014
v -0.149236 -1.876887 -1.152014
v 0.000000 -1.805279 -2.319307
v 0.000000 -1.805279 2.319307
v -0.204699 3.801654 1.155070
v 0.204699 3.801654 -1.155070
v 0.204699 3.801654 1.155070
v -0.204699 3.801654 -1.155070
v 0.000000 3.723946 -2.328474
v 0.000000 3.723946 2.328474
v -0.091687 3.981929 1.101085
v 0.091687 3.981929 -1.101085
v 0.091687 3.981929 1.101085
v -0.091687 3.981929 -1.101085
v 0.000000 3.926519 -2.154297
v 0.000000 3.926519 2.154297
v 0.286113 3.621286 -1.155070
v 0.286113 3.621286 1.155070
v -0.286113 3.621286 -1.155070
v 0.000000 3.536470 -2.328474
v 0.000000 3.536470 2.328474
v -0.286113 3.621286 1.155070
v 0.299691 3.480495 -1.155070
v 0.299691 3.480495 1.155070
v -0.299691 3.480495 -1.155070
v 0.000000 3.410233 -2.328474
v 0.000000 3.410233 2.328474
v -0.299691 3.480495 1.155070
v 0.149236 3.892097 -1.152014
v 0.149236 3.892097 1.152014
v -0.149236 3.892097 -1.152014
v 0.000000 3.820488 -2.319307
v 0.000000 3.820488 2.319307
v -0.149236 3.892097 1.152014
v -0.252047 3.716228 1.155070
v 0.252047 3.716228 -1.155070
v 0.252047 3.716228 1.155070
v -0.252047 3.716228 -1.155070
v 0.000000 3.632402 -2.328474
v 0.000000 3.632402 2.328474
v -0.021955 -2.011208 -1.101085
v -0.021955 4.026417 1.101085
v -0.021955 -2.011208 1.101085
v -0.021955 4.026417 -1.101085
v -0.170798 1.007604 -2.172631
v -0.170798 1.007604 2.172631
v -0.170976 2.291265 -2.172631
v -0.170976 2.291265 2.172631
v -0.171926 3.099544 -2.172631
v -0.171926 3.099544 2.172631
v -0.170976 -0.276056 2.172631
v -0.170976 -0.276056 -2.172631
v -0.171926 -1.084335 -2.172631
v -0.171926 -1.084335 2.172631
v -0.117746 -1.741195 2.172631
v -0.117746 -1.741195 -2.172631
v -0.164647 -1.556544 2.172631
v -0.164647 -1.556544 -2.172631
v -0.145003 -1.652161 -2.172631
v -0.145003 -1.652161 2.172631
v -0.172407 -1.424124 2.172631
v -0.172407 -1.424124 -2.172631
v -0.052207 -1.934515 -2.010677
v -0.052207 -1.934515 2.010677
v -0.085785 -1.835106 -2.163464
v -0.085785 -1.835106 2.163464
v -0.117746 3.756403 -2.172631
v -0.117746 3.756403 2.172631
v -0.052207 3.949724 -2.010677
v -0.052207 3.949724 2.010677
v -0.164647 3.571753 2.172631
v -0.164647 3.571753 -2.172631
v -0.172407 3.439333 -2.172631
v -0.172407 3.439333 2.172631
v -0.085785 3.850316 2.163464
v -0.085785 3.850316 -2.163464
v -0.145003 3.667370 2.172631
v -0.145003 3.667370 -2.172631
v 0.021955 -2.011208 1.101085
v 0.021955 4.026417 -1.101085
v 0.021955 -2.011208 -1.101085
v 0.021955 4.026417 1.101085
v 0.170798 1.007604 2.172631
v 0.170798 1.007604 -2.172631
v 0.170976 2.291265 2.172631
v 0.170976 2.291265 -2.172631
v 0.171926 3.099544 2.172631
v 0.171926 3.099544 -2.172631
v 0.170976 -0.276056 -2.172631
v 0.170976 -0.276056 2.172631
v 0.171926 -1.084335 2.172631
v 0.171926 -1.084335 -2.172631
v 0.117746 -1.741195 -2.172631
v 0.117746 -1.741195 2.172631
v 0.164647 -1.556544 -2.172631
v 0.164647 -1.556544 2.172631
v 0.145003 -1.652161 2.172631
v 0.145003 -1.652161 -2.172631
v 0.172407 -1.424124 -2.172631
v 0.172407 -1.424124 2.172631
v 0.052207 -1.934515 2.010677
v 0.052207 -1.934515 -2.010677
v 0.085785 -1.835106 2.163464
v 0.085785 -1.835106 -2.163464
v 0.117746 3.756403 2.172631
v 0.117746 3.756403 -2.172631
v 0.052207 3.949724 2.010677
v 0.052207 3.949724 -2.010677
v 0.164647 3.571753 -2.172631
v 0.164647 3.571753 2.172631
v 0.172407 3.439333 2.172631
v 0.172407 3.439333 -2.172631
v 0.085785 3.850316 -2.163464
v 0.085785 3.850316 2.163464
v 0.145003 3.667370 -2.172631
v 0.145003 3.667370 2.172631
vt 0.812500 0.500000
vt 0.875000 0.500000
vt 0.875000 0.750000
vt 0.812500 0.750000
vt 0.617187 0.937500
vt 0.625000 0.937500
vt 0.625000 1.000000
vt 0.617188 1.000000
vt 0.617188 0.000000
vt 0.625000 0.000000
vt 0.625000 0.250000
vt 0.617188 0.250000
vt 0.312500 0.500000
vt 0.375000 0.500000
vt 0.375000 0.750000
vt 0.312500 0.750000
vt 0.617188 0.500000
vt 0.625000 0.500000
vt 0.625000 0.750000
vt 0.617188 0.750000
vt 0.617187 0.437500
vt 0.625000 0.437500
vt 0.617188 0.312500
vt 0.625000 0.312500
vt 0.625000 0.375000
vt 0.617188 0.375000
vt 0.187500 0.500000
vt 0.250000 0.500000
vt 0.250000 0.750000
vt 0.187500 0.750000
vt 0.617188 0.812500
vt 0.625000 0.812500
vt 0.625000 0.875000
vt 0.617188 0.875000
vt 0.687500 0.500000
vt 0.750000 0.500000
vt 0.750000 0.750000
vt 0.687500 0.750000
vt 0.437500 0.812500
vt 0.500000 0.812500
vt 0.500000 0.875000
vt 0.437500 0.875000
vt 0.437500 0.312500
vt 0.500000 0.312500
vt 0.500000 0.375000
vt 0.437500 0.375000
vt 0.437500 0.437500
vt 0.500000 0.437500
vt 0.500000 0.500000
vt 0.437500 0.500000
vt 0.500000 0.750000
vt 0.437500 0.750000
vt 0.437500 0.000000
vt 0.500000 0.000000
vt 0.500000 0.250000
vt 0.437500 0.250000
vt 0.437500 0.937500
vt 0.500000 0.937500
vt 0.500000 1.000000
vt 0.437500 1.000000
vt 0.562500 0.812500
vt 0.562500 0.875000
vt 0.562500 0.312500
vt 0.562500 0.375000
vt 0.562500 0.437500
vt 0.562500 0.500000
vt 0.562500 0.750000
vt 0.562500 0.000000
vt 0.562500 0.250000
vt 0.562500 0.937500
vt 0.562500 1.000000
vt 0.593750 0.812500
vt 0.593750 0.875000
vt 0.593750 0.312500
vt 0.593750 0.375000
vt 0.593750 0.437500
vt 0.593750 0.500000
vt 0.593750 0.750000
vt 0.593750 0.000000
vt 0.593750 0.250000
vt 0.593750 0.937500
vt 0.593750 1.000000
vt 0.406250 0.937500
vt 0.406250 1.000000
vt 0.406250 0.000000
vt 0.406250 0.250000
vt 0.406250 0.500000
vt 0.406250 0.750000
vt 0.406250 0.437500
vt 0.406250 0.312500
vt 0.406250 0.375000
vt 0.406250 0.812500
vt 0.406250 0.875000
vt 0.402344 0.812500
vt 0.402344 0.875000
vt 0.402344 0.312500
vt 0.402344 0.375000
vt 0.402344 0.437500
vt 0.402344 0.500000
vt 0.402344 0.750000
vt 0.402344 0.000000
vt 0.402344 0.250000
vt 0.402344 0.937500
vt 0.402344 1.000000
vt 0.386719 0.937500
vt 0.390625 0.937500
vt 0.390625 1.000000
vt 0.386719 1.000000
vt 0.386719 0.000000
vt 0.390625 0.000000
vt 0.390625 0.250000
vt 0.386719 0.250000
vt 0.386719 0.500000
vt 0.390625 0.500000
vt 0.390625 0.750000
vt 0.386719 0.750000
vt 0.386719 0.437500
vt 0.390625 0.437500
vt 0.386719 0.312500
vt 0.390625 0.312500
vt 0.390625 0.375000
vt 0.386719 0.375000
vt 0.386719 0.812500
vt 0.390625 0.812500
vt 0.390625 0.875000
vt 0.386719 0.875000
vt 0.394531 0.937500
vt 0.398437 0.937500
vt 0.398438 1.000000
vt 0.394531 1.000000
vt 0.394531 0.000000
vt 0.398438 0.000000
vt 0.398438 0.250000
vt 0.394531 0.250000
vt 0.394531 0.500000
vt 0.398438 0.500000
vt 0.398438 0.750000
vt 0.394531 0.750000
vt 0.394531 0.437500
vt 0.398437 0.437500
vt 0.394531 0.312500
vt 0.398438 0.312500
vt 0.398438 0.375000
vt 0.394531 0.375000
vt 0.394531 0.812500
vt 0.398438 0.812500
vt 0.398438 0.875000
vt 0.394531 0.875000
vt 0.375000 0.812500
vt 0.382812 0.812500
vt 0.382812 0.875000
vt 0.375000 0.875000
vt 0.375000 0.312500
vt 0.382812 0.312500
vt 0.382812 0.375000
vt 0.375000 0.375000
vt 0.375000 0.437500
vt 0.382812 0.437500
vt 0.382812 0.500000
vt 0.382813 0.750000
vt 0.375000 0.000000
vt 0.382812 0.000000
vt 0.382813 0.250000
vt 0.375000 0.250000
vt 0.375000 0.937500
vt 0.382812 0.937500
vt 0.382812 1.000000
vt 0.375000 1.000000
vt 0.605469 0.812500
vt 0.609375 0.812500
vt 0.609375 0.875000
vt 0.605469 0.875000
vt 0.605469 0.312500
vt 0.609375 0.312500
vt 0.609375 0.375000
vt 0.605469 0.375000
vt 0.605469 0.437500
vt 0.609375 0.437500
vt 0.609375 0.500000
vt 0.605469 0.500000
vt 0.609375 0.750000
vt 0.605469 0.750000
vt 0.605469 0.000000
vt 0.609375 0.000000
vt 0.609375 0.250000
vt 0.605469 0.250000
vt 0.605469 0.937500
vt 0.609375 0.937500
vt 0.609375 1.000000
vt 0.605469 1.000000
vt 0.613281 0.812500
vt 0.613281 0.875000
vt 0.613281 0.312500
vt 0.613281 0.375000
vt 0.613281 0.437500
vt 0.613281 0.500000
vt 0.613281 0.750000
vt 0.613281 0.000000
vt 0.613281 0.250000
vt 0.613281 0.937500
vt 0.613281 1.000000
vt 0.597656 0.937500
vt 0.601562 0.937500
vt 0.601562 1.000000
vt 0.597656 1.000000
vt 0.597656 0.000000
vt 0.601562 0.000000
vt 0.601562 0.250000
vt 0.597656 0.250000
vt 0.597656 0.500000
vt 0.601562 0.500000
vt 0.601562 0.750000
vt 0.597656 0.750000
vt 0.597656 0.437500
vt 0.601562 0.437500
vt 0.597656 0.312500
vt 0.601563 0.312500
vt 0.601562 0.375000
vt 0.597656 0.375000
vt 0.597656 0.812500
vt 0.601563 0.812500
vt 0.601562 0.875000
vt 0.597656 0.875000
vt 0.125000 0.500000
vt 0.125000 0.750000
vn 0.4315 0.9021 0.0000
vn -0.5369 0.8416 0.0577
vn -0.7495 0.6620 0.0000
vn -0.4315 -0.9021 0.0000
vn 0.7495 0.6620 0.0000
vn 0.5369 0.8416 -0.0577
vn 0.2201 0.9715 -0.0876
vn 0.4433 -0.8964 0.0000
vn -0.2201 0.9715 0.0876
vn -0.4433 0.8964 0.0000
vn 0.6738 0.0000 0.7389
vn -0.6738 0.0000 -0.7389
vn 0.9924 0.0002 -0.1232
vn 1.0000 0.0003 0.0000
vn -1.0000 0.0003 0.0000
vn -0.9924 0.0002 0.1232
vn 0.9924 -0.0002 -0.1232
vn 1.0000 -0.0003 0.0000
vn -1.0000 -0.0003 0.0000
vn -0.9924 -0.0002 0.1232
vn 0.6726 -0.0004 0.7400
vn -0.6726 -0.0004 -0.7400
vn 0.9923 -0.0016 -0.1236
vn 1.0000 -0.0020 0.0000
vn -1.0000 -0.0020 0.0000
vn -0.9923 -0.0016 0.1236
vn -0.9923 0.0016 0.1236
vn -1.0000 0.0020 0.0000
vn 1.0000 0.0020 0.0000
vn 0.9923 0.0016 -0.1236
vn -0.6726 0.0004 -0.7400
vn 0.6726 0.0004 0.7400
vn 0.6711 0.0005 0.7414
vn -0.6711 0.0005 -0.7414
vn 0.9923 0.0016 -0.1240
vn 1.0000 0.0018 0.0000
vn -1.0000 0.0018 0.0000
vn -0.9923 0.0016 0.1240
vn -0.8981 -0.4315 0.0851
vn -0.8525 -0.5228 0.0000
vn 0.8525 -0.5228 0.0000
vn 0.8981 -0.4315 -0.0851
vn -0.8044 -0.1892 -0.5631
vn 0.8044 -0.1892 0.5631
vn -0.9555 -0.2693 0.1203
vn -0.9412 -0.3377 0.0000
vn 0.9412 -0.3377 -0.0000
vn 0.9555 -0.2693 -0.1203
vn -0.6995 -0.0717 -0.7111
vn 0.6995 -0.0717 0.7111
vn 0.7475 -0.1128 0.6546
vn -0.7475 -0.1128 -0.6546
vn 0.9144 -0.3910 -0.1052
vn 0.8746 -0.4848 0.0000
vn -0.8746 -0.4848 0.0000
vn -0.9143 -0.3910 0.1052
vn -0.9892 -0.0773 0.1244
vn -0.9954 -0.0960 0.0000
vn 0.9954 -0.0960 -0.0000
vn 0.9892 -0.0773 -0.1244
vn -0.6767 -0.0203 -0.7360
vn 0.6767 -0.0203 0.7360
vn -0.2202 -0.9715 0.0876
vn 0.2202 -0.9715 -0.0876
vn 0.5369 -0.8416 -0.0577
vn 0.7495 -0.6620 0.0000
vn -0.7495 -0.6620 0.0000
vn -0.5369 -0.8416 0.0577
vn 0.5861 -0.7073 0.3953
vn -0.5861 -0.7073 -0.3953
vn 0.8697 -0.4892 -0.0654
vn 0.8420 -0.5394 0.0000
vn -0.8420 -0.5394 0.0000
vn -0.8697 -0.4892 0.0654
vn 0.7475 0.1128 0.6546
vn -0.7475 0.1128 -0.6546
vn 0.9143 0.3910 -0.1052
vn 0.8746 0.4848 0.0000
vn -0.8746 0.4848 0.0000
vn -0.9143 0.3910 0.1052
vn 0.5861 0.7073 0.3953
vn -0.5861 0.7073 -0.3953
vn 0.8697 0.4892 -0.0654
vn 0.8420 0.5394 0.0000
vn -0.8420 0.5394 0.0000
vn -0.8697 0.4892 0.0654
vn -0.9892 0.0773 0.1244
vn -0.9954 0.0960 0.0000
vn 0.9954 0.0960 0.0000
vn 0.9892 0.0773 -0.1244
vn -0.6767 0.0203 -0.7360
vn 0.6767 0.0203 0.7360
vn 0.6711 -0.0005 0.7414
vn -0.6711 -0.0005 -0.7414
vn 0.9923 -0.0016 -0.1240
vn 1.0000 -0.0018 0.0000
vn -1.0000 -0.0018 0.0000
vn -0.9923 -0.0016 0.1240
vn -0.8981 0.4315 0.0851
vn -0.8525 0.5228 0.0000
vn 0.8525 0.5228 0.0000
vn 0.8981 0.4315 -0.0851
vn -0.8044 0.1892 -0.5631
vn 0.8044 0.1892 0.5631
vn -0.9555 0.2693 0.1203
vn -0.9412 0.3377 0.0000
vn 0.9412 0.3377 0.0000
vn 0.9555 0.2693 -0.1203
vn -0.6995 0.0717 -0.7111
vn 0.6995 0.0717 0.7111
vn -0.9555 0.2693 -0.1203
vn -0.6995 0.0717 0.7111
vn -0.8981 0.4315 -0.0851
vn -0.8044 0.1892 0.5631
vn -0.6711 -0.0005 0.7414
vn -0.9923 -0.0016 -0.1240
vn -0.9892 0.0773 -0.1244
vn -0.6767 0.0203 0.7360
vn -0.5861 0.7073 0.3953
vn -0.8697 0.4892 -0.0654
vn -0.7475 0.1128 0.6546
vn -0.9143 0.3910 -0.1052
vn -0.5861 -0.7073 0.3953
vn -0.8697 -0.4892 -0.0654
vn 0.2202 -0.9715 0.0876
vn -0.5369 -0.8416 -0.0577
vn -0.9892 -0.0773 -0.1244
vn -0.6767 -0.0203 0.7360
vn -0.7475 -0.1128 0.6546
vn -0.9143 -0.3910 -0.1052
vn -0.9555 -0.2693 -0.1203
vn -0.6995 -0.0717 0.7111
vn -0.8981 -0.4315 -0.0851
vn -0.8044 -0.1892 0.5631
vn -0.6711 0.0005 0.7414
vn -0.9923 0.0016 -0.1240
vn -0.9923 0.0016 -0.1236
vn -0.6726 0.0004 0.7400
vn -0.6726 -0.0004 0.7400
vn -0.9923 -0.0016 -0.1236
vn -0.6738 -0.0000 0.7389
vn -0.9924 -0.0002 -0.1232
vn -0.9924 0.0002 -0.1232
vn 0.4315 -0.9021 0.0000
vn -0.5369 0.8416 -0.0577
vn 0.2201 0.9715 0.0876
vn 0.4433 0.8964 0.0000
vn 0.9555 0.2693 0.1203
vn 0.6995 0.0717 -0.7111
vn 0.8981 0.4315 0.0851
vn 0.8044 0.1892 -0.5631
vn 0.6711 -0.0005 -0.7414
vn 0.9923 -0.0016 0.1240
vn 0.9892 0.0773 0.1244
vn 0.6767 0.0203 -0.7360
vn 0.5861 0.7073 -0.3953
vn 0.8697 0.4892 0.0654
vn 0.7475 0.1128 -0.6546
vn 0.9143 0.3910 0.1052
vn 0.5861 -0.7073 -0.3953
vn 0.8697 -0.4892 0.0654
vn -0.2202 -0.9715 -0.0876
vn 0.5369 -0.8416 0.0577
vn 0.9892 -0.0773 0.1244
vn 0.6767 -0.0203 -0.7360
vn 0.7475 -0.1128 -0.6546
vn 0.9143 -0.3910 0.1052
vn 0.9555 -0.2693 0.1203
vn 0.6995 -0.0717 -0.7111
vn 0.8981 -0.4315 0.0851
vn 0.8044 -0.1892 -0.5631
vn 0.6711 0.0005 -0.7414
vn 0.9923 0.0016 0.1240
vn 0.9923 0.0016 0.1236
vn 0.6726 0.0004 -0.7400
vn 0.6726 -0.0004 -0.7400
vn 0.9923 -0.0016 0.1236
vn 0.6738 -0.0000 -0.7389
vn 0.9924 -0.0002 0.1232
vn 0.9924 0.0002 0.1232
vn -0.4315 0.9021 0.0000
vn 0.5369 0.8416 0.0577
vn -0.2201 0.9715 -0.0876
vn -0.4433 -0.8964 0.0000
usemtl Material
s off
f 118/1/1 5/2/1 7/3/1 116/4/1
f 144/5/2 116/6/2 7/7/2 85/8/2
f 85/9/3 7/10/3 5/11/3 88/12/3
f 155/13/4 2/14/4 4/15/4 153/16/4
f 86/17/5 1/18/5 3/19/5 87/20/5
f 182/21/6 154/22/6 1/18/6 86/17/6
f 143/23/7 118/24/7 12/25/7 89/26/7
f 115/27/8 9/28/8 11/29/8 117/30/8
f 181/31/9 156/32/9 10/33/9 90/34/9
f 154/35/10 12/36/10 10/37/10 156/38/10
f 164/39/11 157/40/11 18/41/11 35/42/11
f 126/43/12 119/44/12 17/45/12 34/46/12
f 163/47/13 158/48/13 13/49/13 31/50/13
f 31/50/14 13/49/14 15/51/14 32/52/14
f 36/53/15 14/54/15 16/55/15 33/56/15
f 125/57/16 120/58/16 14/59/16 36/60/16
f 157/40/11 159/61/11 24/62/11 18/41/11
f 119/44/12 121/63/12 23/64/12 17/45/12
f 158/48/17 160/65/17 20/66/17 13/49/17
f 13/49/18 20/66/18 21/67/18 15/51/18
f 14/54/19 19/68/19 22/69/19 16/55/19
f 120/58/20 122/70/20 19/71/20 14/59/20
f 159/61/21 161/72/21 30/73/21 24/62/21
f 121/63/22 123/74/22 29/75/22 23/64/22
f 160/65/23 162/76/23 26/77/23 20/66/23
f 20/66/24 26/77/24 27/78/24 21/67/24
f 19/68/25 25/79/25 28/80/25 22/69/25
f 122/70/26 124/81/26 25/82/26 19/71/26
f 128/83/27 125/57/27 36/60/27 42/84/27
f 42/85/28 36/53/28 33/56/28 39/86/28
f 37/87/29 31/50/29 32/52/29 38/88/29
f 166/89/30 163/47/30 31/50/30 37/87/30
f 127/90/31 126/43/31 34/46/31 40/91/31
f 165/92/32 164/39/32 35/42/32 41/93/32
f 174/94/33 165/92/33 41/93/33 66/95/33
f 136/96/34 127/90/34 40/91/34 65/97/34
f 173/98/35 166/89/35 37/87/35 62/99/35
f 62/99/36 37/87/36 38/88/36 63/100/36
f 61/101/37 42/85/37 39/86/37 64/102/37
f 135/103/38 128/83/38 42/84/38 61/104/38
f 140/105/39 129/106/39 48/107/39 73/108/39
f 73/109/40 48/110/40 45/111/40 76/112/40
f 74/113/41 43/114/41 44/115/41 75/116/41
f 178/117/42 167/118/42 43/114/42 74/113/42
f 139/119/43 130/120/43 46/121/43 77/122/43
f 177/123/44 168/124/44 47/125/44 78/126/44
f 134/127/45 131/128/45 49/129/45 60/130/45
f 60/131/46 49/132/46 52/133/46 57/134/46
f 55/135/47 50/136/47 51/137/47 56/138/47
f 172/139/48 169/140/48 50/136/48 55/135/48
f 133/141/49 132/142/49 53/143/49 58/144/49
f 171/145/50 170/146/50 54/147/50 59/148/50
f 168/124/51 171/145/51 59/148/51 47/125/51
f 130/120/52 133/141/52 58/144/52 46/121/52
f 167/118/53 172/139/53 55/135/53 43/114/53
f 43/114/54 55/135/54 56/138/54 44/115/54
f 48/110/55 60/131/55 57/134/55 45/111/55
f 129/106/56 134/127/56 60/130/56 48/107/56
f 131/128/57 135/103/57 61/104/57 49/129/57
f 49/132/58 61/101/58 64/102/58 52/133/58
f 50/136/59 62/99/59 63/100/59 51/137/59
f 169/140/60 173/98/60 62/99/60 50/136/60
f 132/142/61 136/96/61 65/97/61 53/143/61
f 170/146/62 174/94/62 66/95/62 54/147/62
f 153/149/63 175/150/63 71/151/63 11/152/63
f 115/153/64 137/154/64 70/155/64 9/156/64
f 155/157/65 176/158/65 67/159/65 2/14/65
f 2/14/66 67/159/66 68/160/66 4/15/66
f 8/161/67 72/162/67 69/163/67 6/164/67
f 117/165/68 138/166/68 72/167/68 8/168/68
f 175/150/69 177/123/69 78/126/69 71/151/69
f 137/154/70 139/119/70 77/122/70 70/155/70
f 176/158/71 178/117/71 74/113/71 67/159/71
f 67/159/72 74/113/72 75/116/72 68/160/72
f 72/162/73 73/109/73 76/112/73 69/163/73
f 138/166/74 140/105/74 73/108/74 72/167/74
f 190/169/75 179/170/75 84/171/75 114/172/75
f 152/173/76 141/174/76 83/175/76 113/176/76
f 189/177/77 180/178/77 80/179/77 110/180/77
f 110/180/78 80/179/78 81/181/78 111/182/78
f 109/183/79 79/184/79 82/185/79 112/186/79
f 151/187/80 142/188/80 79/189/80 109/190/80
f 188/191/81 181/31/81 90/34/81 107/192/81
f 150/193/82 143/23/82 89/26/82 106/194/82
f 187/195/83 182/21/83 86/17/83 103/196/83
f 103/196/84 86/17/84 87/20/84 104/197/84
f 108/198/85 85/9/85 88/12/85 105/199/85
f 149/200/86 144/5/86 85/8/86 108/201/86
f 148/202/87 145/203/87 96/204/87 102/205/87
f 102/206/88 96/207/88 93/208/88 99/209/88
f 97/210/89 91/211/89 92/212/89 98/213/89
f 186/214/90 183/215/90 91/211/90 97/210/90
f 147/216/91 146/217/91 94/218/91 100/219/91
f 185/220/92 184/221/92 95/222/92 101/223/92
f 161/72/93 185/220/93 101/223/93 30/73/93
f 123/74/94 147/216/94 100/219/94 29/75/94
f 162/76/95 186/214/95 97/210/95 26/77/95
f 26/77/96 97/210/96 98/213/96 27/78/96
f 25/79/97 102/206/97 99/209/97 28/80/97
f 124/81/98 148/202/98 102/205/98 25/82/98
f 142/188/99 149/200/99 108/201/99 79/189/99
f 79/184/100 108/198/100 105/199/100 82/185/100
f 80/179/101 103/196/101 104/197/101 81/181/101
f 180/178/102 187/195/102 103/196/102 80/179/102
f 141/174/103 150/193/103 106/194/103 83/175/103
f 179/170/104 188/191/104 107/192/104 84/171/104
f 145/203/105 151/187/105 109/190/105 96/204/105
f 96/207/106 109/183/106 112/186/106 93/208/106
f 91/211/107 110/180/107 111/182/107 92/212/107
f 183/215/108 189/177/108 110/180/108 91/211/108
f 146/217/109 152/173/109 113/176/109 94/218/109
f 184/221/110 190/169/110 114/172/110 95/222/110
f 93/208/111 112/186/111 152/173/111 146/217/111
f 95/222/112 114/172/112 151/187/112 145/203/112
f 82/185/113 105/199/113 150/193/113 141/174/113
f 84/171/114 107/192/114 149/200/114 142/188/114
f 30/73/115 101/223/115 148/202/115 124/81/115
f 28/80/116 99/209/116 147/216/116 123/74/116
f 99/209/117 93/208/117 146/217/117 147/216/117
f 101/223/118 95/222/118 145/203/118 148/202/118
f 107/192/119 90/34/119 144/5/119 149/200/119
f 105/199/120 88/12/120 143/23/120 150/193/120
f 114/172/121 84/171/121 142/188/121 151/187/121
f 112/186/122 82/185/122 141/174/122 152/173/122
f 71/151/123 78/126/123 140/105/123 138/166/123
f 69/163/124 76/112/124 139/119/124 137/154/124
f 11/152/125 71/151/125 138/166/125 117/165/125
f 6/164/126 69/163/126 137/154/126 115/153/126
f 52/133/127 64/102/127 136/96/127 132/142/127
f 54/147/128 66/95/128 135/103/128 131/128/128
f 47/125/129 59/148/129 134/127/129 129/106/129
f 45/111/130 57/134/130 133/141/130 130/120/130
f 57/134/131 52/133/131 132/142/131 133/141/131
f 59/148/132 54/147/132 131/128/132 134/127/132
f 76/112/133 45/111/133 130/120/133 139/119/133
f 78/126/134 47/125/134 129/106/134 140/105/134
f 66/95/135 41/93/135 128/83/135 135/103/135
f 64/102/136 39/86/136 127/90/136 136/96/136
f 39/86/137 33/56/137 126/43/137 127/90/137
f 41/93/138 35/42/138 125/57/138 128/83/138
f 24/62/139 30/73/139 124/81/139 122/70/139
f 22/69/140 28/80/140 123/74/140 121/63/140
f 18/41/141 24/62/141 122/70/141 120/58/141
f 16/55/142 22/69/142 121/63/142 119/44/142
f 35/42/141 18/41/141 120/58/141 125/57/141
f 33/56/143 16/55/143 119/44/143 126/43/143
f 6/224/144 115/27/144 117/30/144 8/225/144
f 88/12/145 5/11/145 118/24/145 143/23/145
f 90/34/146 10/33/146 116/6/146 144/5/146
f 12/36/147 118/1/147 116/4/147 10/37/147
f 92/212/148 111/182/148 190/169/148 184/221/148
f 94/218/149 113/176/149 189/177/149 183/215/149
f 81/181/150 104/197/150 188/191/150 179/170/150
f 83/175/151 106/194/151 187/195/151 180/178/151
f 29/75/152 100/219/152 186/214/152 162/76/152
f 27/78/153 98/213/153 185/220/153 161/72/153
f 98/213/154 92/212/154 184/221/154 185/220/154
f 100/219/155 94/218/155 183/215/155 186/214/155
f 106/194/156 89/26/156 182/21/156 187/195/156
f 104/197/157 87/20/157 181/31/157 188/191/157
f 113/176/158 83/175/158 180/178/158 189/177/158
f 111/182/159 81/181/159 179/170/159 190/169/159
f 70/155/160 77/122/160 178/117/160 176/158/160
f 68/160/161 75/116/161 177/123/161 175/150/161
f 9/156/162 70/155/162 176/158/162 155/157/162
f 4/15/163 68/160/163 175/150/163 153/149/163
f 51/137/164 63/100/164 174/94/164 170/146/164
f 53/143/165 65/97/165 173/98/165 169/140/165
f 46/121/166 58/144/166 172/139/166 167/118/166
f 44/115/167 56/138/167 171/145/167 168/124/167
f 56/138/168 51/137/168 170/146/168 171/145/168
f 58/144/169 53/143/169 169/140/169 172/139/169
f 75/116/170 44/115/170 168/124/170 177/123/170
f 77/122/171 46/121/171 167/118/171 178/117/171
f 65/97/172 40/91/172 166/89/172 173/98/172
f 63/100/173 38/88/173 165/92/173 174/94/173
f 38/88/174 32/52/174 164/39/174 165/92/174
f 40/91/175 34/46/175 163/47/175 166/89/175
f 23/64/176 29/75/176 162/76/176 160/65/176
f 21/67/177 27/78/177 161/72/177 159/61/177
f 17/45/178 23/64/178 160/65/178 158/48/178
f 15/51/179 21/67/179 159/61/179 157/40/179
f 34/46/178 17/45/178 158/48/178 163/47/178
f 32/52/180 15/51/180 157/40/180 164/39/180
f 1/18/181 154/35/181 156/38/181 3/19/181
f 87/20/182 3/19/182 156/32/182 181/31/182
f 89/26/183 12/25/183 154/22/183 182/21/183
f 9/28/184 155/13/184 153/16/184 11/29/184
