# Blender v3.1.2 OBJ File: 'dirt.blend'
# www.blender.org
mtllib dirt.mtl
o Plane
v -0.999854 0.000000 1.000000
v -0.999854 0.202561 0.500000
v -0.999854 0.000000 -1.000000
v -0.999854 0.401957 0.000000
v -0.999854 0.202561 -0.500000
v -0.999854 0.050640 0.750000
v -0.999854 0.050640 -0.750000
v -0.999854 0.360812 0.250000
v -0.999854 0.360812 -0.250000
v -0.999854 0.000000 0.875000
v -0.999854 0.104446 -0.625000
v -0.999854 0.303842 0.375000
v -0.999854 0.401957 -0.125000
v -0.999854 0.104446 0.625000
v -0.999854 0.000000 -0.875000
v -0.999854 0.401957 0.125000
v -0.999854 0.303842 -0.375000
v 1.000146 0.000000 1.000000
v 1.000146 0.202561 0.500000
v 1.000146 0.000000 -1.000000
v 1.000146 0.401957 0.000000
v 1.000146 0.202561 -0.500000
v 1.000146 0.050640 0.750000
v 1.000146 0.050640 -0.750000
v 1.000146 0.360812 0.250000
v 1.000146 0.360812 -0.250000
v 1.000146 0.000000 0.875000
v 1.000146 0.104446 -0.625000
v 1.000146 0.303842 0.375000
v 1.000146 0.401957 -0.125000
v 1.000146 0.104446 0.625000
v 1.000146 0.000000 -0.875000
v 1.000146 0.401957 0.125000
v 1.000146 0.303842 -0.375000
v 0.000146 0.000000 0.875000
v 0.000146 0.050640 0.750000
v 0.000146 0.202561 -0.500000
v 0.000146 0.104446 -0.625000
v 0.000146 0.050640 -0.750000
v 0.000146 0.202561 0.500000
v 0.000146 0.303842 0.375000
v 0.000146 0.360812 0.250000
v 0.000146 0.401957 0.000000
v 0.000146 0.401957 -0.125000
v 0.000146 0.360812 -0.250000
v 0.000146 0.104446 0.625000
v 0.000146 0.000000 -0.875000
v 0.000146 0.000000 -1.000000
v 0.000146 0.401957 0.125000
v 0.000146 0.303842 -0.375000
v 0.000146 0.000000 1.000000
v -0.499854 0.050640 0.750000
v -0.499854 0.104446 -0.625000
v -0.499854 0.050640 -0.750000
v -0.499854 0.303842 0.375000
v -0.499854 0.360812 0.250000
v -0.499854 0.401957 -0.125000
v -0.499854 0.360812 -0.250000
v -0.499854 0.104446 0.625000
v -0.499854 0.000000 -0.875000
v -0.499854 0.000000 -1.000000
v -0.499854 0.401957 0.125000
v -0.499854 0.303842 -0.375000
v -0.499854 0.000000 0.875000
v -0.499854 0.202561 -0.500000
v -0.499854 0.202561 0.500000
v -0.499854 0.401957 0.000000
v -0.499854 0.000000 1.000000
v 0.500146 0.000000 0.875000
v 0.500146 0.202561 -0.500000
v 0.500146 0.202561 0.500000
v 0.500146 0.401957 0.000000
v 0.500146 0.000000 1.000000
v 0.500146 0.050640 0.750000
v 0.500146 0.104446 -0.625000
v 0.500146 0.050640 -0.750000
v 0.500146 0.303842 0.375000
v 0.500146 0.360812 0.250000
v 0.500146 0.401957 -0.125000
v 0.500146 0.360812 -0.250000
v 0.500146 0.104446 0.625000
v 0.500146 0.000000 -0.875000
v 0.500146 0.000000 -1.000000
v 0.500146 0.401957 0.125000
v 0.500146 0.303842 -0.375000
v 0.750146 0.000000 0.875000
v 0.750146 0.202561 -0.500000
v 0.750146 0.202561 0.500000
v 0.750146 0.401957 0.000000
v 0.750146 0.000000 1.000000
v 0.750146 0.050640 0.750000
v 0.750146 0.104446 -0.625000
v 0.750146 0.050640 -0.750000
v 0.750146 0.303842 0.375000
v 0.750146 0.360812 0.250000
v 0.750146 0.401957 -0.125000
v 0.750146 0.360812 -0.250000
v 0.750146 0.104446 0.625000
v 0.750146 0.000000 -0.875000
v 0.750146 0.000000 -1.000000
v 0.750146 0.401957 0.125000
v 0.750146 0.303842 -0.375000
v 0.250146 0.050640 0.750000
v 0.250146 0.104446 -0.625000
v 0.250146 0.050640 -0.750000
v 0.250146 0.303842 0.375000
v 0.250146 0.360812 0.250000
v 0.250146 0.401957 -0.125000
v 0.250146 0.360812 -0.250000
v 0.250146 0.104446 0.625000
v 0.250146 0.000000 -0.875000
v 0.250146 0.000000 -1.000000
v 0.250146 0.401957 0.125000
v 0.250146 0.303842 -0.375000
v 0.250146 0.000000 0.875000
v 0.250146 0.202561 -0.500000
v 0.250146 0.202561 0.500000
v 0.250146 0.401957 0.000000
v 0.250146 0.000000 1.000000
v -0.249854 0.000000 0.875000
v -0.249854 0.202561 -0.500000
v -0.249854 0.202561 0.500000
v -0.249854 0.401957 0.000000
v -0.249854 0.000000 1.000000
v -0.249854 0.050640 0.750000
v -0.249854 0.104446 -0.625000
v -0.249854 0.050640 -0.750000
v -0.249854 0.303842 0.375000
v -0.249854 0.360812 0.250000
v -0.249854 0.401957 -0.125000
v -0.249854 0.360812 -0.250000
v -0.249854 0.104446 0.625000
v -0.249854 0.000000 -0.875000
v -0.249854 0.000000 -1.000000
v -0.249854 0.401957 0.125000
v -0.249854 0.303842 -0.375000
v -0.749854 0.050640 0.750000
v -0.749854 0.104446 -0.625000
v -0.749854 0.050640 -0.750000
v -0.749854 0.303842 0.375000
v -0.749854 0.360812 0.250000
v -0.749854 0.401957 -0.125000
v -0.749854 0.360812 -0.250000
v -0.749854 0.104446 0.625000
v -0.749854 0.000000 -0.875000
v -0.749854 0.000000 -1.000000
v -0.749854 0.401957 0.125000
v -0.749854 0.303842 -0.375000
v -0.749854 0.000000 0.875000
v -0.749854 0.202561 -0.500000
v -0.749854 0.202561 0.500000
v -0.749854 0.401957 0.000000
v -0.749854 0.000000 1.000000
vt 0.000000 0.000000
vt 0.000000 0.000000
vt 0.000000 0.000000
vt 0.000000 0.000000
vt 0.000000 0.000000
vt 0.000000 0.000000
vt 0.000000 0.000000
vt 0.000000 0.000000
vt 0.000000 0.000000
vt 0.000000 0.000000
vt 0.000000 0.000000
vt 0.000000 0.000000
vt 0.000000 0.000000
vt 0.000000 0.000000
vt 0.000000 0.000000
vt 0.000000 0.000000
vt 0.000000 0.000000
vt 0.000000 0.000000
vt 0.000000 0.000000
vt 0.000000 0.000000
vt 0.000000 0.000000
vt 0.000000 0.000000
vt 0.000000 0.000000
vt 0.000000 0.000000
vt 0.000000 0.000000
vt 0.000000 0.000000
vt 0.000000 0.000000
vt 0.000000 0.000000
vt 0.000000 0.000000
vt 0.000000 0.000000
vt 0.000000 0.000000
vt 0.000000 0.000000
vt 0.000000 0.000000
vt 0.000000 0.000000
vt 0.000000 0.000000
vt 0.000000 0.000000
vt 0.000000 0.000000
vt 0.000000 0.000000
vt 0.000000 0.000000
vt 0.000000 0.000000
vt 0.000000 0.000000
vt 0.000000 0.000000
vt 0.000000 0.000000
vt 0.000000 0.000000
vt 0.000000 0.000000
vt 0.000000 0.000000
vt 0.000000 0.000000
vt 0.000000 0.000000
vt 0.000000 0.000000
vt 0.000000 0.000000
vt 0.000000 0.000000
vt 0.000000 0.000000
vt 0.000000 0.000000
vt 0.000000 0.000000
vt 0.000000 0.000000
vt 0.000000 0.000000
vt 0.000000 0.000000
vt 0.000000 0.000000
vt 0.000000 0.000000
vt 0.000000 0.000000
vt 0.000000 0.000000
vt 0.000000 0.000000
vt 0.000000 0.000000
vt 0.000000 0.000000
vt 0.000000 0.000000
vt 0.000000 0.000000
vt 0.000000 0.000000
vt 0.000000 0.000000
vt 0.000000 0.000000
vt 0.000000 0.000000
vt 0.000000 0.000000
vt 0.000000 0.000000
vt 0.000000 0.000000
vt 0.000000 0.000000
vt 0.000000 0.000000
vt 0.000000 0.000000
vt 0.000000 0.000000
vt 0.000000 0.000000
vt 0.000000 0.000000
vt 0.000000 0.000000
vt 0.000000 0.000000
vt 0.000000 0.000000
vt 0.000000 0.000000
vt 0.000000 0.000000
vt 0.000000 0.000000
vt 0.000000 0.000000
vt 0.000000 0.000000
vt 0.000000 0.000000
vt 0.000000 0.000000
vt 0.000000 0.000000
vt 0.000000 0.000000
vt 0.000000 0.000000
vt 0.000000 0.000000
vt 0.000000 0.000000
vt 0.000000 0.000000
vt 0.000000 0.000000
vt 0.000000 0.000000
vt 0.000000 0.000000
vt 0.000000 0.000000
vt 0.000000 0.000000
vt 0.000000 0.000000
vt 0.000000 0.000000
vt 0.000000 0.000000
vt 0.000000 0.000000
vt 0.000000 0.000000
vt 0.000000 0.000000
vt 0.000000 0.000000
vt 0.000000 0.000000
vt 0.000000 0.000000
vt 0.000000 0.000000
vt 0.000000 0.000000
vt 0.000000 0.000000
vt 0.000000 0.000000
vt 0.000000 0.000000
vt 0.000000 0.000000
vt 0.000000 0.000000
vt 0.000000 0.000000
vt 0.000000 0.000000
vt 0.000000 0.000000
vt 0.000000 0.000000
vt 0.000000 0.000000
vt 0.000000 0.000000
vt 0.000000 0.000000
vt 0.000000 0.000000
vt 0.000000 0.000000
vt 0.000000 0.000000
vt 0.000000 0.000000
vt 0.000000 0.000000
vt 0.000000 0.000000
vt 0.000000 0.000000
vt 0.000000 0.000000
vt 0.000000 0.000000
vt 0.000000 0.000000
vt 0.000000 0.000000
vt 0.000000 0.000000
vt 0.000000 0.000000
vt 0.000000 0.000000
vt 0.000000 0.000000
vt 0.000000 0.000000
vt 0.000000 0.000000
vt 0.000000 0.000000
vt 0.000000 0.000000
vt 0.000000 0.000000
vt 0.000000 0.000000
vt 0.000000 0.000000
vt 0.000000 0.000000
vt 0.000000 0.000000
vt 0.000000 0.000000
vt 0.000000 0.000000
vt 0.000000 0.000000
vt 0.000000 0.000000
vt 0.000000 0.000000
vt 0.000000 0.000000
vn 0.0000 0.9268 0.3755
vn 0.0000 0.7866 -0.6174
vn 0.0000 0.9185 -0.3954
vn 0.0000 0.7770 0.6295
vn 0.0000 0.9099 0.4147
vn 0.0000 1.0000 0.0000
vn 0.0000 0.9499 -0.3127
vn 0.0000 0.9185 0.3954
vn 0.0000 0.7866 0.6174
vn 0.0000 0.9268 -0.3755
vn 0.0000 0.9499 0.3127
vn 0.0000 0.9099 -0.4147
vn 0.0000 0.7770 -0.6295
usemtl Material.001
s off
f 91/1/1 86/2/1 27/3/1 23/4/1
f 92/5/2 87/6/2 22/7/2 28/8/2
f 93/9/3 92/5/3 28/8/3 24/10/3
f 94/11/4 88/12/4 19/13/4 29/14/4
f 95/15/5 94/11/5 29/14/5 25/16/5
f 96/17/6 89/18/6 21/19/6 30/20/6
f 97/21/7 96/17/7 30/20/7 26/22/7
f 98/23/8 91/1/8 23/4/8 31/24/8
f 88/12/9 98/23/9 31/24/9 19/13/9
f 99/25/10 93/9/10 24/10/10 32/26/10
f 100/27/6 99/25/6 32/26/6 20/28/6
f 101/29/11 95/15/11 25/16/11 33/30/11
f 89/18/6 101/29/6 33/30/6 21/19/6
f 102/31/12 97/21/12 26/22/12 34/32/12
f 86/2/6 90/33/6 18/34/6 27/3/6
f 87/6/13 102/31/13 34/32/13 22/7/13
f 121/35/13 136/36/13 50/37/13 37/38/13
f 120/39/6 124/40/6 51/41/6 35/42/6
f 136/36/12 131/43/12 45/44/12 50/37/12
f 123/45/6 135/46/6 49/47/6 43/48/6
f 135/46/11 129/49/11 42/50/11 49/47/11
f 134/51/6 133/52/6 47/53/6 48/54/6
f 133/52/10 127/55/10 39/56/10 47/53/10
f 122/57/9 132/58/9 46/59/9 40/60/9
f 132/58/8 125/61/8 36/62/8 46/59/8
f 131/43/7 130/63/7 44/64/7 45/44/7
f 130/63/6 123/45/6 43/48/6 44/64/6
f 129/49/5 128/65/5 41/66/5 42/50/5
f 128/65/4 122/57/4 40/60/4 41/66/4
f 127/55/3 126/67/3 38/68/3 39/56/3
f 126/67/2 121/35/2 37/38/2 38/68/2
f 125/61/1 120/39/1 35/42/1 36/62/1
f 137/69/1 149/70/1 64/71/1 52/72/1
f 138/73/2 150/74/2 65/75/2 53/76/2
f 139/77/3 138/73/3 53/76/3 54/78/3
f 140/79/4 151/80/4 66/81/4 55/82/4
f 141/83/5 140/79/5 55/82/5 56/84/5
f 142/85/6 152/86/6 67/87/6 57/88/6
f 143/89/7 142/85/7 57/88/7 58/90/7
f 144/91/8 137/69/8 52/72/8 59/92/8
f 151/80/9 144/91/9 59/92/9 66/81/9
f 145/93/10 139/77/10 54/78/10 60/94/10
f 146/95/6 145/93/6 60/94/6 61/96/6
f 147/97/11 141/83/11 56/84/11 62/98/11
f 152/86/6 147/97/6 62/98/6 67/87/6
f 148/99/12 143/89/12 58/90/12 63/100/12
f 149/70/6 153/101/6 68/102/6 64/71/6
f 150/74/13 148/99/13 63/100/13 65/75/13
f 116/103/13 114/104/13 85/105/13 70/106/13
f 115/107/6 119/108/6 73/109/6 69/110/6
f 114/104/12 109/111/12 80/112/12 85/105/12
f 118/113/6 113/114/6 84/115/6 72/116/6
f 113/114/11 107/117/11 78/118/11 84/115/11
f 112/119/6 111/120/6 82/121/6 83/122/6
f 111/120/10 105/123/10 76/124/10 82/121/10
f 117/125/9 110/126/9 81/127/9 71/128/9
f 110/126/8 103/129/8 74/130/8 81/127/8
f 109/111/7 108/131/7 79/132/7 80/112/7
f 108/131/6 118/113/6 72/116/6 79/132/6
f 107/117/5 106/133/5 77/134/5 78/118/5
f 106/133/4 117/125/4 71/128/4 77/134/4
f 105/123/3 104/135/3 75/136/3 76/124/3
f 104/135/2 116/103/2 70/106/2 75/136/2
f 103/129/1 115/107/1 69/110/1 74/130/1
f 70/106/13 85/105/13 102/31/13 87/6/13
f 69/110/6 73/109/6 90/33/6 86/2/6
f 85/105/12 80/112/12 97/21/12 102/31/12
f 72/116/6 84/115/6 101/29/6 89/18/6
f 84/115/11 78/118/11 95/15/11 101/29/11
f 83/122/6 82/121/6 99/25/6 100/27/6
f 82/121/10 76/124/10 93/9/10 99/25/10
f 71/128/9 81/127/9 98/23/9 88/12/9
f 81/127/8 74/130/8 91/1/8 98/23/8
f 80/112/7 79/132/7 96/17/7 97/21/7
f 79/132/6 72/116/6 89/18/6 96/17/6
f 78/118/5 77/134/5 94/11/5 95/15/5
f 77/134/4 71/128/4 88/12/4 94/11/4
f 76/124/3 75/136/3 92/5/3 93/9/3
f 75/136/2 70/106/2 87/6/2 92/5/2
f 74/130/1 69/110/1 86/2/1 91/1/1
f 36/62/1 35/42/1 115/107/1 103/129/1
f 38/68/2 37/38/2 116/103/2 104/135/2
f 39/56/3 38/68/3 104/135/3 105/123/3
f 41/66/4 40/60/4 117/125/4 106/133/4
f 42/50/5 41/66/5 106/133/5 107/117/5
f 44/64/6 43/48/6 118/113/6 108/131/6
f 45/44/7 44/64/7 108/131/7 109/111/7
f 46/59/8 36/62/8 103/129/8 110/126/8
f 40/60/9 46/59/9 110/126/9 117/125/9
f 47/53/10 39/56/10 105/123/10 111/120/10
f 48/54/6 47/53/6 111/120/6 112/119/6
f 49/47/11 42/50/11 107/117/11 113/114/11
f 43/48/6 49/47/6 113/114/6 118/113/6
f 50/37/12 45/44/12 109/111/12 114/104/12
f 35/42/6 51/41/6 119/108/6 115/107/6
f 37/38/13 50/37/13 114/104/13 116/103/13
f 52/72/1 64/71/1 120/39/1 125/61/1
f 53/76/2 65/75/2 121/35/2 126/67/2
f 54/78/3 53/76/3 126/67/3 127/55/3
f 55/82/4 66/81/4 122/57/4 128/65/4
f 56/84/5 55/82/5 128/65/5 129/49/5
f 57/88/6 67/87/6 123/45/6 130/63/6
f 58/90/7 57/88/7 130/63/7 131/43/7
f 59/92/8 52/72/8 125/61/8 132/58/8
f 66/81/9 59/92/9 132/58/9 122/57/9
f 60/94/10 54/78/10 127/55/10 133/52/10
f 61/96/6 60/94/6 133/52/6 134/51/6
f 62/98/11 56/84/11 129/49/11 135/46/11
f 67/87/6 62/98/6 135/46/6 123/45/6
f 63/100/12 58/90/12 131/43/12 136/36/12
f 64/71/6 68/102/6 124/40/6 120/39/6
f 65/75/13 63/100/13 136/36/13 121/35/13
f 5/137/13 17/138/13 148/99/13 150/74/13
f 10/139/6 1/140/6 153/101/6 149/70/6
f 17/138/12 9/141/12 143/89/12 148/99/12
f 4/142/6 16/143/6 147/97/6 152/86/6
f 16/143/11 8/144/11 141/83/11 147/97/11
f 3/145/6 15/146/6 145/93/6 146/95/6
f 15/146/10 7/147/10 139/77/10 145/93/10
f 2/148/9 14/149/9 144/91/9 151/80/9
f 14/149/8 6/150/8 137/69/8 144/91/8
f 9/141/7 13/151/7 142/85/7 143/89/7
f 13/151/6 4/142/6 152/86/6 142/85/6
f 8/144/5 12/152/5 140/79/5 141/83/5
f 12/152/4 2/148/4 151/80/4 140/79/4
f 7/147/3 11/153/3 138/73/3 139/77/3
f 11/153/2 5/137/2 150/74/2 138/73/2
f 6/150/1 10/139/1 149/70/1 137/69/1
