# Blender v3.1.2 OBJ File: 'dirt-end.blend'
# www.blender.org
mtllib dirt-end.mtl
o Plane
v -0.999854 0.000000 1.000000
v -0.999854 0.202561 0.500000
v -0.999854 0.000000 -1.000000
v -0.999854 0.401957 0.000000
v -0.999854 0.202561 -0.500000
v -0.999854 0.050640 0.750000
v -0.999854 0.050640 -0.750000
v -0.999854 0.360812 0.250000
v -0.999854 0.360812 -0.250000
v -0.999854 0.000000 0.875000
v -0.999854 0.104446 -0.625000
v -0.999854 0.303842 0.375000
v -0.999854 0.401957 -0.125000
v -0.999854 0.104446 0.625000
v -0.999854 0.000000 -0.875000
v -0.999854 0.401957 0.125000
v -0.999854 0.303842 -0.375000
v 1.000146 0.004732 1.000000
v 1.000146 0.000000 0.500000
v 1.000146 0.000000 -1.000000
v 1.000146 0.000000 0.000000
v 1.000146 0.000000 -0.500000
v 1.000146 0.000000 0.750000
v 1.000146 0.000000 -0.750000
v 1.000146 0.000000 0.250000
v 1.000146 0.000000 -0.250000
v 1.000146 0.003449 0.875000
v 1.000146 0.000000 -0.625000
v 1.000146 0.000000 0.375000
v 1.000146 0.000000 -0.125000
v 1.000146 0.000000 0.625000
v 1.000146 0.000000 -0.875000
v 1.000146 0.000000 0.125000
v 1.000146 0.000000 -0.375000
v 0.000146 0.000000 0.875000
v 0.000146 0.050640 0.750000
v 0.000146 0.202561 -0.500000
v 0.000146 0.104446 -0.625000
v 0.000146 0.050640 -0.750000
v 0.000146 0.202561 0.500000
v 0.000146 0.303842 0.375000
v 0.000146 0.360812 0.250000
v 0.000146 0.401957 0.000000
v 0.000146 0.401957 -0.125000
v 0.000146 0.360812 -0.250000
v 0.000146 0.104446 0.625000
v 0.000146 0.000000 -0.875000
v 0.000146 0.000000 -1.000000
v 0.000146 0.401957 0.125000
v 0.000146 0.303842 -0.375000
v 0.000146 0.000000 1.000000
v -0.499854 0.050640 0.750000
v -0.499854 0.104446 -0.625000
v -0.499854 0.050640 -0.750000
v -0.499854 0.303842 0.375000
v -0.499854 0.360812 0.250000
v -0.499854 0.401957 -0.125000
v -0.499854 0.360812 -0.250000
v -0.499854 0.104446 0.625000
v -0.499854 0.000000 -0.875000
v -0.499854 0.000000 -1.000000
v -0.499854 0.401957 0.125000
v -0.499854 0.303842 -0.375000
v -0.499854 0.000000 0.875000
v -0.499854 0.202561 -0.500000
v -0.499854 0.202561 0.500000
v -0.499854 0.401957 0.000000
v -0.499854 0.000000 1.000000
v 0.500146 0.000000 0.875000
v 0.500146 0.202561 -0.500000
v 0.500146 0.202561 0.500000
v 0.500146 0.401957 0.000000
v 0.500146 0.000000 1.000000
v 0.500146 0.050640 0.750000
v 0.500146 0.104446 -0.625000
v 0.500146 0.050640 -0.750000
v 0.500146 0.303842 0.375000
v 0.500146 0.360812 0.250000
v 0.500146 0.401957 -0.125000
v 0.500146 0.360812 -0.250000
v 0.500146 0.104446 0.625000
v 0.500146 0.000000 -0.875000
v 0.500146 0.000000 -1.000000
v 0.500146 0.401957 0.125000
v 0.500146 0.303842 -0.375000
v 0.750146 0.004513 0.875000
v 0.750146 0.123436 -0.500000
v 0.750146 0.123436 0.500000
v 0.750146 0.240541 0.000000
v 0.750146 0.000000 1.000000
v 0.750146 0.028762 0.750000
v 0.750146 0.069098 -0.625000
v 0.750146 0.028762 -0.750000
v 0.750146 0.167746 0.375000
v 0.750146 0.212056 0.250000
v 0.750146 0.240541 -0.125000
v 0.750146 0.212056 -0.250000
v 0.750146 0.069098 0.625000
v 0.750146 0.000000 -0.875000
v 0.750146 0.000000 -1.000000
v 0.750146 0.240541 0.125000
v 0.750146 0.167746 -0.375000
v 0.250146 0.050640 0.750000
v 0.250146 0.104446 -0.625000
v 0.250146 0.050640 -0.750000
v 0.250146 0.303842 0.375000
v 0.250146 0.360812 0.250000
v 0.250146 0.401957 -0.125000
v 0.250146 0.360812 -0.250000
v 0.250146 0.104446 0.625000
v 0.250146 0.000000 -0.875000
v 0.250146 0.000000 -1.000000
v 0.250146 0.401957 0.125000
v 0.250146 0.303842 -0.375000
v 0.250146 0.000000 0.875000
v 0.250146 0.202561 -0.500000
v 0.250146 0.202561 0.500000
v 0.250146 0.401957 0.000000
v 0.250146 0.000000 1.000000
v -0.249854 0.000000 0.875000
v -0.249854 0.202561 -0.500000
v -0.249854 0.202561 0.500000
v -0.249854 0.401957 0.000000
v -0.249854 0.000000 1.000000
v -0.249854 0.050640 0.750000
v -0.249854 0.104446 -0.625000
v -0.249854 0.050640 -0.750000
v -0.249854 0.303842 0.375000
v -0.249854 0.360812 0.250000
v -0.249854 0.401957 -0.125000
v -0.249854 0.360812 -0.250000
v -0.249854 0.104446 0.625000
v -0.249854 0.000000 -0.875000
v -0.249854 0.000000 -1.000000
v -0.249854 0.401957 0.125000
v -0.249854 0.303842 -0.375000
v -0.749854 0.050640 0.750000
v -0.749854 0.104446 -0.625000
v -0.749854 0.050640 -0.750000
v -0.749854 0.303842 0.375000
v -0.749854 0.360812 0.250000
v -0.749854 0.401957 -0.125000
v -0.749854 0.360812 -0.250000
v -0.749854 0.104446 0.625000
v -0.749854 0.000000 -0.875000
v -0.749854 0.000000 -1.000000
v -0.749854 0.401957 0.125000
v -0.749854 0.303842 -0.375000
v -0.749854 0.000000 0.875000
v -0.749854 0.202561 -0.500000
v -0.749854 0.202561 0.500000
v -0.749854 0.401957 0.000000
v -0.749854 0.000000 1.000000
vt 0.000000 0.000000
vt 0.000000 0.000000
vt 0.000000 0.000000
vt 0.000000 0.000000
vt 0.000000 0.000000
vt 0.000000 0.000000
vt 0.000000 0.000000
vt 0.000000 0.000000
vt 0.000000 0.000000
vt 0.000000 0.000000
vt 0.000000 0.000000
vt 0.000000 0.000000
vt 0.000000 0.000000
vt 0.000000 0.000000
vt 0.000000 0.000000
vt 0.000000 0.000000
vt 0.000000 0.000000
vt 0.000000 0.000000
vt 0.000000 0.000000
vt 0.000000 0.000000
vt 0.000000 0.000000
vt 0.000000 0.000000
vt 0.000000 0.000000
vt 0.000000 0.000000
vt 0.000000 0.000000
vt 0.000000 0.000000
vt 0.000000 0.000000
vt 0.000000 0.000000
vt 0.000000 0.000000
vt 0.000000 0.000000
vt 0.000000 0.000000
vt 0.000000 0.000000
vt 0.000000 0.000000
vt 0.000000 0.000000
vt 0.000000 0.000000
vt 0.000000 0.000000
vt 0.000000 0.000000
vt 0.000000 0.000000
vt 0.000000 0.000000
vt 0.000000 0.000000
vt 0.000000 0.000000
vt 0.000000 0.000000
vt 0.000000 0.000000
vt 0.000000 0.000000
vt 0.000000 0.000000
vt 0.000000 0.000000
vt 0.000000 0.000000
vt 0.000000 0.000000
vt 0.000000 0.000000
vt 0.000000 0.000000
vt 0.000000 0.000000
vt 0.000000 0.000000
vt 0.000000 0.000000
vt 0.000000 0.000000
vt 0.000000 0.000000
vt 0.000000 0.000000
vt 0.000000 0.000000
vt 0.000000 0.000000
vt 0.000000 0.000000
vt 0.000000 0.000000
vt 0.000000 0.000000
vt 0.000000 0.000000
vt 0.000000 0.000000
vt 0.000000 0.000000
vt 0.000000 0.000000
vt 0.000000 0.000000
vt 0.000000 0.000000
vt 0.000000 0.000000
vt 0.000000 0.000000
vt 0.000000 0.000000
vt 0.000000 0.000000
vt 0.000000 0.000000
vt 0.000000 0.000000
vt 0.000000 0.000000
vt 0.000000 0.000000
vt 0.000000 0.000000
vt 0.000000 0.000000
vt 0.000000 0.000000
vt 0.000000 0.000000
vt 0.000000 0.000000
vt 0.000000 0.000000
vt 0.000000 0.000000
vt 0.000000 0.000000
vt 0.000000 0.000000
vt 0.000000 0.000000
vt 0.000000 0.000000
vt 0.000000 0.000000
vt 0.000000 0.000000
vt 0.000000 0.000000
vt 0.000000 0.000000
vt 0.000000 0.000000
vt 0.000000 0.000000
vt 0.000000 0.000000
vt 0.000000 0.000000
vt 0.000000 0.000000
vt 0.000000 0.000000
vt 0.000000 0.000000
vt 0.000000 0.000000
vt 0.000000 0.000000
vt 0.000000 0.000000
vt 0.000000 0.000000
vt 0.000000 0.000000
vt 0.000000 0.000000
vt 0.000000 0.000000
vt 0.000000 0.000000
vt 0.000000 0.000000
vt 0.000000 0.000000
vt 0.000000 0.000000
vt 0.000000 0.000000
vt 0.000000 0.000000
vt 0.000000 0.000000
vt 0.000000 0.000000
vt 0.000000 0.000000
vt 0.000000 0.000000
vt 0.000000 0.000000
vt 0.000000 0.000000
vt 0.000000 0.000000
vt 0.000000 0.000000
vt 0.000000 0.000000
vt 0.000000 0.000000
vt 0.000000 0.000000
vt 0.000000 0.000000
vt 0.000000 0.000000
vt 0.000000 0.000000
vt 0.000000 0.000000
vt 0.000000 0.000000
vt 0.000000 0.000000
vt 0.000000 0.000000
vt 0.000000 0.000000
vt 0.000000 0.000000
vt 0.000000 0.000000
vt 0.000000 0.000000
vt 0.000000 0.000000
vt 0.000000 0.000000
vt 0.000000 0.000000
vt 0.000000 0.000000
vt 0.000000 0.000000
vt 0.000000 0.000000
vt 0.000000 0.000000
vt 0.000000 0.000000
vt 0.000000 0.000000
vt 0.000000 0.000000
vt 0.000000 0.000000
vt 0.000000 0.000000
vt 0.000000 0.000000
vt 0.000000 0.000000
vt 0.000000 0.000000
vt 0.000000 0.000000
vt 0.000000 0.000000
vt 0.000000 0.000000
vt 0.000000 0.000000
vt 0.000000 0.000000
vt 0.000000 0.000000
vn 0.0593 0.9948 0.0828
vn 0.3522 0.9146 -0.1988
vn 0.1897 0.9693 -0.1564
vn 0.4974 0.8542 0.1514
vn 0.5989 0.7885 0.1398
vn 0.6933 0.7206 0.0000
vn 0.6687 0.7387 -0.0842
vn 0.1897 0.9693 0.1564
vn 0.3522 0.9146 0.1988
vn 0.0571 0.9918 -0.1141
vn 0.0000 1.0000 0.0000
vn 0.6687 0.7387 0.0842
vn 0.5989 0.7885 -0.1398
vn -0.0073 0.9999 0.0129
vn 0.4974 0.8542 -0.1514
vn 0.0000 0.7770 -0.6295
vn 0.0000 0.9099 -0.4147
vn 0.0000 0.9499 0.3127
vn 0.0000 0.9268 -0.3755
vn 0.0000 0.7866 0.6174
vn 0.0000 0.9185 0.3954
vn 0.0000 0.9499 -0.3127
vn 0.0000 0.9099 0.4147
vn 0.0000 0.7770 0.6295
vn 0.0000 0.9185 -0.3954
vn 0.0000 0.7866 -0.6174
vn 0.0000 0.9268 0.3755
vn 0.3486 0.8099 -0.4717
vn -0.0090 0.9998 0.0181
vn 0.4669 0.8196 -0.3320
vn 0.5424 0.8401 0.0000
vn 0.5130 0.8269 0.2303
vn 0.0417 0.9523 -0.3024
vn 0.1918 0.8379 0.5110
vn 0.1065 0.9305 0.3504
vn 0.5130 0.8269 -0.2303
vn 0.4669 0.8196 0.3320
vn 0.3486 0.8099 0.4717
vn 0.1065 0.9305 -0.3504
vn 0.1918 0.8379 -0.5110
vn 0.0333 0.9574 0.2868
usemtl Material.001
s off
f 91/1/1 86/2/1 27/3/1 23/4/1
f 92/5/2 87/6/2 22/7/2 28/8/2
f 93/9/3 92/5/3 28/8/3 24/10/3
f 94/11/4 88/12/4 19/13/4 29/14/4
f 95/15/5 94/11/5 29/14/5 25/16/5
f 96/17/6 89/18/6 21/19/6 30/20/6
f 97/21/7 96/17/7 30/20/7 26/22/7
f 98/23/8 91/1/8 23/4/8 31/24/8
f 88/12/9 98/23/9 31/24/9 19/13/9
f 99/25/10 93/9/10 24/10/10 32/26/10
f 100/27/11 99/25/11 32/26/11 20/28/11
f 101/29/12 95/15/12 25/16/12 33/30/12
f 89/18/6 101/29/6 33/30/6 21/19/6
f 102/31/13 97/21/13 26/22/13 34/32/13
f 86/2/14 90/33/14 18/34/14 27/3/14
f 87/6/15 102/31/15 34/32/15 22/7/15
f 121/35/16 136/36/16 50/37/16 37/38/16
f 120/39/11 124/40/11 51/41/11 35/42/11
f 136/36/17 131/43/17 45/44/17 50/37/17
f 123/45/11 135/46/11 49/47/11 43/48/11
f 135/46/18 129/49/18 42/50/18 49/47/18
f 134/51/11 133/52/11 47/53/11 48/54/11
f 133/52/19 127/55/19 39/56/19 47/53/19
f 122/57/20 132/58/20 46/59/20 40/60/20
f 132/58/21 125/61/21 36/62/21 46/59/21
f 131/43/22 130/63/22 44/64/22 45/44/22
f 130/63/11 123/45/11 43/48/11 44/64/11
f 129/49/23 128/65/23 41/66/23 42/50/23
f 128/65/24 122/57/24 40/60/24 41/66/24
f 127/55/25 126/67/25 38/68/25 39/56/25
f 126/67/26 121/35/26 37/38/26 38/68/26
f 125/61/27 120/39/27 35/42/27 36/62/27
f 137/69/27 149/70/27 64/71/27 52/72/27
f 138/73/26 150/74/26 65/75/26 53/76/26
f 139/77/25 138/73/25 53/76/25 54/78/25
f 140/79/24 151/80/24 66/81/24 55/82/24
f 141/83/23 140/79/23 55/82/23 56/84/23
f 142/85/11 152/86/11 67/87/11 57/88/11
f 143/89/22 142/85/22 57/88/22 58/90/22
f 144/91/21 137/69/21 52/72/21 59/92/21
f 151/80/20 144/91/20 59/92/20 66/81/20
f 145/93/19 139/77/19 54/78/19 60/94/19
f 146/95/11 145/93/11 60/94/11 61/96/11
f 147/97/18 141/83/18 56/84/18 62/98/18
f 152/86/11 147/97/11 62/98/11 67/87/11
f 148/99/17 143/89/17 58/90/17 63/100/17
f 149/70/11 153/101/11 68/102/11 64/71/11
f 150/74/16 148/99/16 63/100/16 65/75/16
f 116/103/16 114/104/16 85/105/16 70/106/16
f 115/107/11 119/108/11 73/109/11 69/110/11
f 114/104/17 109/111/17 80/112/17 85/105/17
f 118/113/11 113/114/11 84/115/11 72/116/11
f 113/114/18 107/117/18 78/118/18 84/115/18
f 112/119/11 111/120/11 82/121/11 83/122/11
f 111/120/19 105/123/19 76/124/19 82/121/19
f 117/125/20 110/126/20 81/127/20 71/128/20
f 110/126/21 103/129/21 74/130/21 81/127/21
f 109/111/22 108/131/22 79/132/22 80/112/22
f 108/131/11 118/113/11 72/116/11 79/132/11
f 107/117/23 106/133/23 77/134/23 78/118/23
f 106/133/24 117/125/24 71/128/24 77/134/24
f 105/123/25 104/135/25 75/136/25 76/124/25
f 104/135/26 116/103/26 70/106/26 75/136/26
f 103/129/27 115/107/27 69/110/27 74/130/27
f 70/106/28 85/105/28 102/31/28 87/6/28
f 69/110/29 73/109/29 90/33/29 86/2/29
f 85/105/30 80/112/30 97/21/30 102/31/30
f 72/116/31 84/115/31 101/29/31 89/18/31
f 84/115/32 78/118/32 95/15/32 101/29/32
f 83/122/11 82/121/11 99/25/11 100/27/11
f 82/121/33 76/124/33 93/9/33 99/25/33
f 71/128/34 81/127/34 98/23/34 88/12/34
f 81/127/35 74/130/35 91/1/35 98/23/35
f 80/112/36 79/132/36 96/17/36 97/21/36
f 79/132/31 72/116/31 89/18/31 96/17/31
f 78/118/37 77/134/37 94/11/37 95/15/37
f 77/134/38 71/128/38 88/12/38 94/11/38
f 76/124/39 75/136/39 92/5/39 93/9/39
f 75/136/40 70/106/40 87/6/40 92/5/40
f 74/130/41 69/110/41 86/2/41 91/1/41
f 36/62/27 35/42/27 115/107/27 103/129/27
f 38/68/26 37/38/26 116/103/26 104/135/26
f 39/56/25 38/68/25 104/135/25 105/123/25
f 41/66/24 40/60/24 117/125/24 106/133/24
f 42/50/23 41/66/23 106/133/23 107/117/23
f 44/64/11 43/48/11 118/113/11 108/131/11
f 45/44/22 44/64/22 108/131/22 109/111/22
f 46/59/21 36/62/21 103/129/21 110/126/21
f 40/60/20 46/59/20 110/126/20 117/125/20
f 47/53/19 39/56/19 105/123/19 111/120/19
f 48/54/11 47/53/11 111/120/11 112/119/11
f 49/47/18 42/50/18 107/117/18 113/114/18
f 43/48/11 49/47/11 113/114/11 118/113/11
f 50/37/17 45/44/17 109/111/17 114/104/17
f 35/42/11 51/41/11 119/108/11 115/107/11
f 37/38/16 50/37/16 114/104/16 116/103/16
f 52/72/27 64/71/27 120/39/27 125/61/27
f 53/76/26 65/75/26 121/35/26 126/67/26
f 54/78/25 53/76/25 126/67/25 127/55/25
f 55/82/24 66/81/24 122/57/24 128/65/24
f 56/84/23 55/82/23 128/65/23 129/49/23
f 57/88/11 67/87/11 123/45/11 130/63/11
f 58/90/22 57/88/22 130/63/22 131/43/22
f 59/92/21 52/72/21 125/61/21 132/58/21
f 66/81/20 59/92/20 132/58/20 122/57/20
f 60/94/19 54/78/19 127/55/19 133/52/19
f 61/96/11 60/94/11 133/52/11 134/51/11
f 62/98/18 56/84/18 129/49/18 135/46/18
f 67/87/11 62/98/11 135/46/11 123/45/11
f 63/100/17 58/90/17 131/43/17 136/36/17
f 64/71/11 68/102/11 124/40/11 120/39/11
f 65/75/16 63/100/16 136/36/16 121/35/16
f 5/137/16 17/138/16 148/99/16 150/74/16
f 10/139/11 1/140/11 153/101/11 149/70/11
f 17/138/17 9/141/17 143/89/17 148/99/17
f 4/142/11 16/143/11 147/97/11 152/86/11
f 16/143/18 8/144/18 141/83/18 147/97/18
f 3/145/11 15/146/11 145/93/11 146/95/11
f 15/146/19 7/147/19 139/77/19 145/93/19
f 2/148/20 14/149/20 144/91/20 151/80/20
f 14/149/21 6/150/21 137/69/21 144/91/21
f 9/141/22 13/151/22 142/85/22 143/89/22
f 13/151/11 4/142/11 152/86/11 142/85/11
f 8/144/23 12/152/23 140/79/23 141/83/23
f 12/152/24 2/148/24 151/80/24 140/79/24
f 7/147/25 11/153/25 138/73/25 139/77/25
f 11/153/26 5/137/26 150/74/26 138/73/26
f 6/150/27 10/139/27 149/70/27 137/69/27
