# Blender 3.2.1
# www.blender.org
mtllib fence3.mtl
o Cube
v 0.223236 0.198150 0.029850
v 0.294887 -0.221044 0.029850
v 0.223236 0.198150 0.150948
v 0.294887 -0.221044 0.150948
v 0.005488 0.250342 0.029850
v 0.128873 -0.234779 0.029850
v 0.005488 0.250342 0.150948
v 0.128873 -0.234779 0.150948
v 0.286875 -0.058146 0.029850
v 0.075535 -0.094772 0.150948
v 0.286875 -0.058146 0.150948
v 0.075535 -0.094772 0.029850
v 0.056078 -0.007028 0.150948
v 0.245670 0.089116 0.029850
v 0.245670 0.089116 0.150948
v 0.056078 -0.007028 0.029850
v 0.291453 -0.164203 0.029850
v 0.291453 -0.164203 0.150948
v 0.111017 -0.183661 0.029850
v 0.111017 -0.183661 0.150948
v 0.229048 -0.229743 0.029850
v 0.066290 0.343740 0.150948
v 0.229048 -0.229743 0.150948
v 0.066290 0.343740 0.029850
v 0.141145 -0.111941 0.029850
v 0.141145 -0.111941 0.160055
v 0.141145 -0.051666 0.029850
v 0.141145 -0.051666 0.160055
v 0.141145 -0.172215 0.160055
v 0.141145 -0.172215 0.029850
v 0.128873 -0.234779 0.090399
v 0.233561 0.206462 0.090399
v -0.005055 0.261636 0.090399
v 0.294887 -0.221044 0.090399
v 0.295327 -0.058146 0.090399
v 0.067927 -0.094772 0.090399
v 0.265590 0.089116 0.090399
v 0.039055 -0.007028 0.090399
v 0.111017 -0.183661 0.090399
v 0.300222 -0.164203 0.090399
v 0.229048 -0.229743 0.090399
v 0.066290 0.361559 0.090399
vn -0.1040 0.9946 -0.0000
vn -0.9741 0.2263 -0.0000
vn -0.5117 0.0922 0.8542
vn -0.0755 0.5328 0.8429
vn -0.0202 0.0032 0.9998
vn -0.4628 -0.0935 0.8815
vn -0.9754 -0.2206 -0.0000
vn -0.4732 0.0925 -0.8761
vn -0.4053 -0.0925 -0.9095
vn 0.0907 -0.9959 -0.0000
vn 0.7463 -0.6656 -0.0000
vn 0.4540 -0.4070 0.7926
vn 0.0625 -0.5022 0.8625
vn 0.9722 0.2340 -0.0000
vn 0.8614 0.5078 -0.0000
vn 0.4248 0.2503 0.8700
vn 0.4176 0.1094 0.9020
vn -0.0000 -0.0000 -1.0000
vn -0.0634 0.5260 -0.8481
vn 0.4034 0.2346 -0.8844
vn 0.3874 0.0933 -0.9172
vn 0.4360 0.0619 -0.8978
vn 0.4275 0.0060 -0.9040
vn 0.9999 0.0140 -0.0000
vn 0.9902 0.1393 -0.0000
vn 0.4777 0.0670 0.8760
vn 0.4662 -0.0115 0.8846
vn -0.9301 -0.3673 -0.0000
vn -0.9423 -0.3349 -0.0000
vn -0.4179 -0.1495 -0.8961
vn -0.4079 -0.1611 -0.8987
vn -0.0548 -0.0627 0.9965
vn -0.0487 -0.0132 0.9987
vn -0.5219 -0.1655 0.8368
vn -0.5004 -0.2333 0.8338
vn -0.3414 -0.5506 0.7617
vn -0.5582 -0.8297 -0.0000
vn -0.3140 -0.4667 -0.8268
vn 0.0415 -0.4561 -0.8890
vn 0.4293 -0.3829 -0.8180
vt 0.625000 0.500000
vt 0.375000 0.500000
vt 0.625000 0.750000
vt 0.375000 0.750000
vt 0.625000 0.250000
vt 0.875000 0.500000
vt 0.375000 0.250000
vt 0.125000 0.500000
vt 0.875000 0.750000
vt 0.625000 1.000000
vt 0.625000 0.000000
vt 0.375000 1.000000
vt 0.125000 0.750000
vt 0.375000 0.000000
vt 0.500000 0.500000
vt 0.500000 1.000000
vt 0.500000 0.000000
vt 0.500000 0.750000
vt 0.500000 0.250000
vt 0.562500 1.000000
vt 0.562500 0.000000
vt 0.562500 0.500000
vt 0.562500 0.750000
vt 0.562500 0.250000
vt 0.437500 0.500000
vt 0.437500 0.750000
vt 0.437500 0.250000
vt 0.437500 1.000000
vt 0.437500 0.000000
vt 0.375000 0.375000
vt 0.250000 0.500000
vt 0.625000 0.875000
vt 0.750000 0.750000
vt 0.375000 0.875000
vt 0.250000 0.750000
vt 0.625000 0.375000
vt 0.750000 0.500000
vt 0.500000 0.375000
vt 0.500000 0.875000
vt 0.562500 0.375000
vt 0.562500 0.875000
vt 0.437500 0.875000
vt 0.437500 0.375000
vt 0.125000 0.625000
vt 0.375000 0.125000
vt 0.625000 0.625000
vt 0.625000 0.125000
vt 0.875000 0.625000
vt 0.375000 0.625000
vt 0.500000 0.625000
vt 0.500000 0.125000
vt 0.562500 0.625000
vt 0.562500 0.125000
vt 0.437500 0.125000
vt 0.437500 0.625000
vt 0.250000 0.625000
vt 0.750000 0.625000
s 1
usemtl Material
f 42/57/1 33/48/2 7/9/3 22/33/4
f 28/41/5 22/32/4 7/10/3 13/20/6
f 38/53/7 33/47/2 5/5/8 16/24/9
f 41/56/10 34/49/11 4/4/12 23/35/13
f 37/52/14 32/46/15 3/3/16 15/23/17
f 27/40/18 24/36/19 1/1/20 14/22/21
f 30/43/18 25/38/18 9/15/22 17/25/23
f 40/55/24 35/50/25 11/18/26 18/26/27
f 39/54/28 36/51/29 12/19/30 19/27/31
f 29/42/32 26/39/33 10/16/34 20/28/35
f 25/38/18 27/40/18 14/22/21 9/15/22
f 35/50/25 37/52/14 15/23/17 11/18/26
f 36/51/29 38/53/7 16/24/9 12/19/30
f 26/39/33 28/41/5 13/20/6 10/16/34
f 23/34/13 29/42/32 20/28/35 8/12/36
f 31/45/37 39/54/28 19/27/31 6/7/38
f 34/49/11 40/55/24 18/26/27 4/4/12
f 21/30/39 30/43/18 17/25/23 2/2/40
f 6/7/38 19/27/31 30/43/18 21/30/39
f 4/4/12 18/26/27 29/42/32 23/34/13
f 11/18/26 15/23/17 28/41/5 26/39/33
f 12/19/30 16/24/9 27/40/18 25/38/18
f 18/26/27 11/18/26 26/39/33 29/42/32
f 19/27/31 12/19/30 25/38/18 30/43/18
f 16/24/9 5/5/8 24/36/19 27/40/18
f 31/44/37 41/56/10 23/35/13 8/13/36
f 15/23/17 3/3/16 22/32/4 28/41/5
f 32/46/15 42/57/1 22/33/4 3/3/16
f 1/1/20 24/37/19 42/57/1 32/46/15
f 6/8/38 21/31/39 41/56/10 31/44/37
f 2/2/40 17/25/23 40/55/24 34/49/11
f 8/14/36 20/29/35 39/54/28 31/45/37
f 10/17/34 13/21/6 38/53/7 36/51/29
f 9/15/22 14/22/21 37/52/14 35/50/25
f 20/29/35 10/17/34 36/51/29 39/54/28
f 17/25/23 9/15/22 35/50/25 40/55/24
f 14/22/21 1/1/20 32/46/15 37/52/14
f 21/31/39 2/2/40 34/49/11 41/56/10
f 13/21/6 7/11/3 33/47/2 38/53/7
f 24/37/19 5/6/8 33/48/2 42/57/1
o Cube.002
v -0.405478 -0.226911 0.180948
v -0.297731 0.312543 0.096950
v -0.405478 -0.226911 -0.000150
v -0.297731 0.312543 0.083172
v -0.204380 -0.226911 0.180948
v -0.282432 0.312543 0.096950
v -0.204380 -0.226911 -0.000150
v -0.282432 0.312543 0.083172
v -0.405478 0.079406 0.180948
v -0.405478 0.079406 -0.000150
v -0.189533 0.079406 -0.000150
v -0.189533 0.079406 0.180948
v -0.395580 0.163340 0.180948
v -0.395580 0.163340 -0.000150
v -0.184584 0.175207 -0.000150
v -0.184584 0.175207 0.180948
v -0.405478 -0.073752 -0.000150
v -0.192833 -0.073752 -0.000150
v -0.192833 -0.073752 0.180948
v -0.405478 -0.073752 0.180948
v -0.405478 -0.226911 0.089304
v -0.297731 0.312543 0.089978
v -0.204380 -0.226911 0.089304
v -0.282432 0.312543 0.089978
v -0.176336 0.079406 0.089304
v -0.424897 0.079406 0.089304
v -0.171386 0.175207 0.089304
v -0.414999 0.163340 0.089304
v -0.424897 -0.073752 0.089304
v -0.179635 -0.073752 0.089304
vn -0.9600 0.2799 -0.0025
vn -0.5248 0.8512 -0.0008
vn -0.3686 0.7559 -0.5411
vn -0.5136 0.2032 -0.8336
vn 0.3397 0.7766 -0.5305
vn 0.6421 0.1531 -0.7512
vn 0.9851 0.1722 -0.0018
vn 0.5140 0.8578 -0.0005
vn 0.3415 0.7785 0.5267
vn 0.6430 0.1532 0.7504
vn -0.3707 0.7578 0.5370
vn -0.5149 0.2034 0.8328
vn -0.9287 -0.3708 -0.0012
vn 0.9057 -0.4240 -0.0008
vn 0.5548 -0.2597 0.7904
vn -0.6084 -0.2429 0.7556
vn 0.6412 -0.0444 0.7661
vn 0.6071 -0.0221 0.7943
vn -0.6311 0.0369 0.7749
vn -0.6119 -0.0193 0.7907
vn 0.9977 -0.0676 -0.0013
vn 0.9993 -0.0366 -0.0017
vn -0.6106 -0.0193 -0.7917
vn -0.6293 0.0368 -0.7763
vn 0.6059 -0.0220 -0.7952
vn 0.6403 -0.0444 -0.7668
vn -0.9995 -0.0309 -0.0019
vn -0.9984 0.0559 -0.0025
vn -0.6076 -0.2426 -0.7563
vn 0.5543 -0.2595 -0.7908
vt 0.125000 0.750000
vt 0.375000 1.000000
vt 0.375000 0.000000
vt 0.625000 1.000000
vt 0.875000 0.750000
vt 0.625000 0.000000
vt 0.375000 0.250000
vt 0.125000 0.500000
vt 0.625000 0.250000
vt 0.875000 0.500000
vt 0.375000 0.750000
vt 0.625000 0.750000
vt 0.375000 0.500000
vt 0.625000 0.500000
vt 0.500000 1.000000
vt 0.500000 0.000000
vt 0.500000 0.250000
vt 0.500000 0.500000
vt 0.500000 0.750000
vt 0.562500 1.000000
vt 0.562500 0.000000
vt 0.562500 0.250000
vt 0.562500 0.500000
vt 0.562500 0.750000
vt 0.437500 0.250000
vt 0.437500 0.500000
vt 0.437500 0.750000
vt 0.437500 1.000000
vt 0.437500 0.000000
vt 0.375000 0.126513
vt 0.125000 0.623487
vt 0.875000 0.623487
vt 0.625000 0.126513
vt 0.375000 0.623487
vt 0.625000 0.623487
vt 0.500000 0.623487
vt 0.500000 0.126513
vt 0.562500 0.623487
vt 0.562500 0.126513
vt 0.437500 0.126513
vt 0.437500 0.623487
s 1
f 70/96/41 64/90/42 46/66/43 56/79/44
f 56/79/44 46/66/43 50/71/45 57/80/46
f 69/95/47 66/92/48 48/69/49 58/81/50
f 58/81/50 48/69/49 44/61/51 55/77/52
f 63/88/53 65/91/54 47/68/55 43/58/56
f 66/92/48 64/89/42 44/62/51 48/69/49
f 61/84/57 54/76/58 51/72/59 62/85/60
f 72/98/61 67/93/62 54/76/58 61/84/57
f 59/82/63 52/74/64 53/75/65 60/83/66
f 71/97/67 68/94/68 52/74/64 59/82/63
f 54/76/58 58/81/50 55/77/52 51/72/59
f 67/93/62 69/95/47 58/81/50 54/76/58
f 52/74/64 56/79/44 57/80/46 53/75/65
f 68/94/68 70/96/41 56/79/44 52/74/64
f 63/87/53 71/97/67 59/82/63 45/64/69
f 45/64/69 59/82/63 60/83/66 49/70/70
f 65/91/54 72/98/61 61/84/57 47/68/55
f 47/68/55 61/84/57 62/85/60 43/59/56
f 49/70/70 60/83/66 72/98/61 65/91/54
f 43/60/56 62/86/60 71/97/67 63/87/53
f 51/73/59 55/78/52 70/96/41 68/94/68
f 53/75/65 57/80/46 69/95/47 67/93/62
f 62/86/60 51/73/59 68/94/68 71/97/67
f 60/83/66 53/75/65 67/93/62 72/98/61
f 50/71/45 46/67/43 64/89/42 66/92/48
f 45/65/69 49/70/70 65/91/54 63/88/53
f 57/80/46 50/71/45 66/92/48 69/95/47
f 55/78/52 44/63/51 64/90/42 70/96/41
o Cube.008
v -0.198919 0.036568 0.129557
v -0.198919 0.139014 0.129557
v -0.198919 0.036568 0.054702
v -0.198919 0.139014 0.054702
v 0.071332 0.054538 0.127094
v 0.005487 0.132910 0.131275
v 0.077000 0.063255 0.052964
v 0.011155 0.141627 0.057146
v -0.198919 0.030154 0.092130
v -0.198919 0.146919 0.092130
v 0.078288 0.053990 0.089767
v 0.003240 0.143316 0.094533
v -0.080560 0.034871 0.054702
v -0.080560 0.144131 0.054702
v -0.080560 0.070231 0.129557
v -0.080560 0.144131 0.129557
v -0.080560 0.165366 0.092130
v -0.080560 0.052174 0.092130
vn -0.2740 -0.9372 0.2160
vn -0.4488 0.8936 -0.0000
vn -0.2678 0.4389 -0.8577
vn -0.2347 -0.5954 -0.7684
vn 0.0609 -0.6576 -0.7509
vn 0.0100 0.5045 -0.8634
vn 0.2400 0.5564 -0.7955
vn 0.3642 -0.3646 -0.8570
vn 0.5158 -0.8057 0.2913
vn 0.3858 0.9170 0.1011
vn 0.2222 0.4219 0.8790
vn 0.2702 -0.4946 0.8261
vn 0.0332 -0.3990 0.9164
vn 0.0231 0.5145 0.8572
vn -0.2678 0.4389 0.8577
vn -0.1724 -0.6042 0.7780
vn 0.0896 -0.9753 0.2017
vn 0.0273 0.9995 0.0180
vt 0.375000 1.000000
vt 0.375000 0.000000
vt 0.125000 0.750000
vt 0.625000 1.000000
vt 0.875000 0.750000
vt 0.625000 0.000000
vt 0.125000 0.500000
vt 0.375000 0.250000
vt 0.875000 0.500000
vt 0.625000 0.250000
vt 0.375000 0.750000
vt 0.625000 0.750000
vt 0.375000 0.500000
vt 0.625000 0.500000
vt 0.375000 0.125000
vt 0.125000 0.625000
vt 0.875000 0.625000
vt 0.625000 0.125000
vt 0.375000 0.625000
vt 0.625000 0.625000
vt 0.250000 0.500000
vt 0.375000 0.375000
vt 0.750000 0.500000
vt 0.625000 0.375000
vt 0.250000 0.750000
vt 0.375000 0.875000
vt 0.750000 0.750000
vt 0.625000 0.875000
vt 0.750000 0.625000
vt 0.250000 0.625000
s 1
f 81/113/71 82/116/72 76/108/73 75/106/74
f 85/120/75 86/122/76 80/112/77 79/111/78
f 83/117/79 84/118/80 78/110/81 77/109/82
f 87/124/83 88/126/84 74/102/85 73/99/86
f 90/128/87 83/117/79 77/109/82 87/123/83
f 89/127/88 82/115/72 74/103/85 88/125/84
f 86/121/76 76/107/73 82/115/72 89/127/88
f 85/119/75 79/111/78 83/117/79 90/128/87
f 79/111/78 80/112/77 84/118/80 83/117/79
f 73/100/86 74/104/85 82/116/72 81/113/71
f 75/105/74 85/119/75 90/128/87 81/114/71
f 80/112/77 86/121/76 89/127/88 84/118/80
f 84/118/80 89/127/88 88/125/84 78/110/81
f 81/114/71 90/128/87 87/123/83 73/101/86
f 77/109/82 78/110/81 88/126/84 87/124/83
f 75/106/74 76/108/73 86/122/76 85/120/75
o Cube.009
v -0.195599 -0.122993 0.091485
v -0.195599 -0.033026 0.091485
v -0.195599 -0.122993 0.013251
v -0.195599 -0.033026 0.013251
v 0.091647 -0.100351 0.078919
v 0.091647 -0.039285 0.078919
v 0.091647 -0.100351 0.025817
v 0.091647 -0.039285 0.025817
v -0.195599 -0.128626 0.052368
v -0.195599 -0.026084 0.052368
v 0.091647 -0.104174 0.052368
v 0.091647 -0.034573 0.052368
vn -0.2606 -0.9654 -0.0000
vn -0.2948 0.9555 -0.0000
vn -0.2065 0.5721 -0.7937
vn -0.1884 -0.6169 -0.7642
vn 0.2692 0.5905 -0.7608
vn 0.2913 -0.5573 -0.7775
vn 0.3932 -0.9194 -0.0000
vn 0.3407 0.9402 -0.0000
vn 0.2692 0.5905 0.7608
vn 0.2913 -0.5573 0.7775
vn -0.2065 0.5721 0.7937
vn -0.1884 -0.6169 0.7642
vt 0.375000 1.000000
vt 0.125000 0.750000
vt 0.375000 0.000000
vt 0.625000 1.000000
vt 0.875000 0.750000
vt 0.625000 0.000000
vt 0.375000 0.250000
vt 0.125000 0.500000
vt 0.625000 0.250000
vt 0.875000 0.500000
vt 0.375000 0.750000
vt 0.625000 0.750000
vt 0.375000 0.500000
vt 0.625000 0.500000
vt 0.125000 0.625000
vt 0.375000 0.125000
vt 0.875000 0.625000
vt 0.625000 0.125000
vt 0.375000 0.625000
vt 0.625000 0.625000
s 1
f 99/144/89 100/146/90 94/137/91 93/135/92
f 93/135/92 94/137/91 98/142/93 97/141/94
f 101/147/95 102/148/96 96/140/97 95/139/98
f 95/139/98 96/140/97 92/132/99 91/129/100
f 99/143/89 101/147/95 95/139/98 91/130/100
f 102/148/96 100/145/90 92/133/99 96/140/97
f 98/142/93 94/138/91 100/145/90 102/148/96
f 93/136/92 97/141/94 101/147/95 99/143/89
f 97/141/94 98/142/93 102/148/96 101/147/95
f 91/131/100 92/134/99 100/146/90 99/144/89
o Cube.010
v 0.209467 0.040709 0.132733
v 0.209467 0.163155 0.132733
v 0.209467 0.040709 0.037878
v 0.209467 0.163155 0.037878
v 0.435324 0.054016 0.122392
v 0.435324 0.149765 0.122392
v 0.435324 0.054016 0.048219
v 0.435324 0.149765 0.048219
v 0.209467 0.033043 0.085306
v 0.209467 0.172603 0.085306
v 0.435324 0.048021 0.085306
v 0.435324 0.157153 0.085306
vn -0.4227 -0.9063 -0.0000
vn -0.4159 0.9094 -0.0000
vn -0.2884 0.5330 -0.7954
vn -0.2883 -0.5430 -0.7887
vn 0.3712 0.5100 -0.7759
vn 0.3709 -0.5212 -0.7686
vn 0.5077 -0.8615 -0.0000
vn 0.5030 0.8643 -0.0000
vn 0.3712 0.5100 0.7759
vn 0.3709 -0.5212 0.7686
vn -0.2884 0.5330 0.7954
vn -0.2883 -0.5430 0.7887
vt 0.375000 1.000000
vt 0.125000 0.750000
vt 0.375000 0.000000
vt 0.625000 1.000000
vt 0.875000 0.750000
vt 0.625000 0.000000
vt 0.375000 0.250000
vt 0.125000 0.500000
vt 0.625000 0.250000
vt 0.875000 0.500000
vt 0.375000 0.750000
vt 0.625000 0.750000
vt 0.375000 0.500000
vt 0.625000 0.500000
vt 0.125000 0.625000
vt 0.375000 0.125000
vt 0.875000 0.625000
vt 0.625000 0.125000
vt 0.375000 0.625000
vt 0.625000 0.625000
s 1
f 111/164/101 112/166/102 106/157/103 105/155/104
f 105/155/104 106/157/103 110/162/105 109/161/106
f 113/167/107 114/168/108 108/160/109 107/159/110
f 107/159/110 108/160/109 104/152/111 103/149/112
f 111/163/101 113/167/107 107/159/110 103/150/112
f 114/168/108 112/165/102 104/153/111 108/160/109
f 110/162/105 106/158/103 112/165/102 114/168/108
f 105/156/104 109/161/106 113/167/107 111/163/101
f 109/161/106 110/162/105 114/168/108 113/167/107
f 103/151/112 104/154/111 112/166/102 111/164/101
o Cube.011
v 0.176252 -0.122993 0.091485
v 0.176252 -0.033026 0.091485
v 0.176252 -0.122993 0.013251
v 0.176252 -0.033026 0.013251
v 0.463497 -0.122532 0.078919
v 0.463497 -0.017318 0.078919
v 0.463497 -0.122532 0.025817
v 0.463497 -0.017318 0.025817
v 0.176252 -0.128626 0.052368
v 0.176252 -0.026084 0.052368
v 0.463497 -0.129120 0.052368
v 0.463497 -0.009199 0.052368
v 0.319875 -0.122763 0.019534
v 0.319875 -0.025172 0.019534
v 0.319875 -0.122763 0.085202
v 0.319875 -0.025172 0.085202
v 0.319875 -0.017641 0.052368
v 0.319875 -0.128873 0.052368
v 0.391686 -0.027805 0.022675
v 0.391686 -0.122648 0.082060
v 0.391686 -0.028090 0.052368
v 0.391686 -0.122648 0.022675
v 0.391686 -0.027805 0.082060
v 0.391686 -0.134144 0.052368
vn -0.3193 -0.9477 -0.0000
vn -0.3601 0.9329 -0.0000
vn -0.2290 0.5115 -0.8282
vn -0.2130 -0.5629 -0.7986
vn 0.0308 -0.5589 -0.8287
vn 0.0150 0.5437 -0.8392
vn 0.1842 0.6908 -0.6992
vn 0.2721 -0.5534 -0.7872
vn 0.3433 -0.9392 -0.0000
vn 0.1833 0.9831 -0.0000
vn 0.1842 0.6908 0.6992
vn 0.2721 -0.5534 0.7872
vn 0.0231 -0.5869 0.8094
vn 0.0382 0.6308 0.7750
vn -0.2290 0.5115 0.8282
vn -0.2130 -0.5629 0.7986
vn 0.0064 -1.0000 -0.0000
vn 0.0308 -0.5589 0.8287
vn 0.0192 0.9998 -0.0000
vn 0.0382 0.6308 -0.7750
vn 0.0231 -0.5869 -0.8094
vn -0.0131 -0.9999 -0.0000
vn -0.0463 0.9989 -0.0000
vn 0.0150 0.5437 0.8391
vt 0.375000 1.000000
vt 0.375000 0.000000
vt 0.125000 0.750000
vt 0.625000 1.000000
vt 0.875000 0.750000
vt 0.625000 0.000000
vt 0.125000 0.500000
vt 0.375000 0.250000
vt 0.875000 0.500000
vt 0.625000 0.250000
vt 0.375000 0.750000
vt 0.625000 0.750000
vt 0.375000 0.500000
vt 0.625000 0.500000
vt 0.375000 0.125000
vt 0.125000 0.625000
vt 0.875000 0.625000
vt 0.625000 0.125000
vt 0.375000 0.625000
vt 0.625000 0.625000
vt 0.250000 0.500000
vt 0.375000 0.375000
vt 0.750000 0.500000
vt 0.625000 0.375000
vt 0.375000 0.875000
vt 0.250000 0.750000
vt 0.750000 0.750000
vt 0.625000 0.875000
vt 0.750000 0.625000
vt 0.250000 0.625000
vt 0.687500 0.500000
vt 0.625000 0.437500
vt 0.375000 0.812500
vt 0.312500 0.750000
vt 0.687500 0.625000
vt 0.312500 0.500000
vt 0.375000 0.437500
vt 0.625000 0.812500
vt 0.687500 0.750000
vt 0.312500 0.625000
s 1
f 123/183/113 124/186/114 118/178/115 117/176/116
f 136/205/117 133/200/118 122/182/119 121/181/120
f 125/187/121 126/188/122 120/180/123 119/179/124
f 129/193/125 130/196/126 116/172/127 115/169/128
f 138/208/129 125/187/121 119/179/124 134/202/130
f 131/197/131 124/185/114 116/173/127 130/195/126
f 128/191/132 118/177/115 124/185/114 131/197/131
f 136/204/117 121/181/120 125/187/121 138/208/129
f 121/181/120 122/182/119 126/188/122 125/187/121
f 115/170/128 116/174/127 124/186/114 123/183/113
f 117/175/116 127/189/133 132/198/134 123/184/113
f 133/199/118 128/191/132 131/197/131 135/203/135
f 135/203/135 131/197/131 130/195/126 137/207/136
f 123/184/113 132/198/134 129/194/125 115/171/128
f 134/201/130 137/206/136 130/196/126 129/193/125
f 117/176/116 118/178/115 128/192/132 127/190/133
f 119/179/124 120/180/123 137/206/136 134/201/130
f 126/188/122 135/203/135 137/207/136 120/180/123
f 122/182/119 133/199/118 135/203/135 126/188/122
f 127/189/133 136/204/117 138/208/129 132/198/134
f 132/198/134 138/208/129 134/202/130 129/194/125
f 127/190/133 128/192/132 133/200/118 136/205/117
