# Blender 3.2.1
# www.blender.org
mtllib Pillar.mtl
o Cube.001
v 0.065413 -0.200616 0.138470
v 0.173160 0.567780 0.054472
v 0.065413 -0.200616 -0.042628
v 0.173160 0.567780 0.040694
v 0.266511 -0.200616 0.138470
v 0.188460 0.567780 0.054472
v 0.266511 -0.200616 -0.042628
v 0.188460 0.567780 0.040694
v 0.065413 0.235700 0.138470
v 0.065413 0.235700 -0.042628
v 0.281358 0.235700 -0.042628
v 0.281358 0.235700 0.138470
v 0.075311 0.355256 0.138470
v 0.075311 0.355256 -0.042628
v 0.286307 0.372159 -0.042628
v 0.286307 0.372159 0.138470
v 0.065413 0.017542 -0.042628
v 0.278059 0.017542 -0.042628
v 0.278059 0.017542 0.138470
v 0.065413 0.017542 0.138470
v 0.065413 -0.200616 0.046825
v 0.173160 0.567780 0.047499
v 0.266511 -0.200616 0.046825
v 0.188460 0.567780 0.047499
v 0.294556 0.235700 0.046825
v 0.045995 0.235700 0.046825
v 0.299505 0.372159 0.046825
v 0.055893 0.355256 0.046825
v 0.045995 0.017542 0.046825
v 0.291256 0.017542 0.046825
vn -0.9797 0.2005 -0.0026
vn -0.6598 0.7514 -0.0010
vn -0.4374 0.6297 -0.6420
vn -0.5191 0.1442 -0.8425
vn 0.4078 0.6544 -0.6368
vn 0.6459 0.1081 -0.7557
vn 0.9925 0.1218 -0.0018
vn 0.6492 0.7607 -0.0006
vn 0.4103 0.6567 0.6328
vn 0.6469 0.1082 0.7549
vn -0.4403 0.6319 0.6378
vn -0.5204 0.1443 0.8416
vn -0.9629 -0.2699 -0.0012
vn 0.9500 -0.3122 -0.0008
vn 0.5645 -0.1855 0.8043
vn -0.6177 -0.1731 0.7671
vn 0.6415 -0.0312 0.7665
vn 0.6072 -0.0155 0.7944
vn -0.6313 0.0259 0.7751
vn -0.6120 -0.0136 0.7908
vn 0.9989 -0.0475 -0.0013
vn 0.9997 -0.0257 -0.0017
vn -0.6106 -0.0136 -0.7918
vn -0.6296 0.0258 -0.7765
vn 0.6060 -0.0155 -0.7953
vn 0.6407 -0.0312 -0.7672
vn -0.9998 -0.0217 -0.0019
vn -0.9992 0.0393 -0.0025
vn -0.6169 -0.1729 -0.7678
vn 0.5640 -0.1854 -0.8047
vt 0.125000 0.750000
vt 0.375000 1.000000
vt 0.375000 0.000000
vt 0.625000 1.000000
vt 0.875000 0.750000
vt 0.625000 0.000000
vt 0.375000 0.250000
vt 0.125000 0.500000
vt 0.625000 0.250000
vt 0.875000 0.500000
vt 0.375000 0.750000
vt 0.625000 0.750000
vt 0.375000 0.500000
vt 0.625000 0.500000
vt 0.500000 1.000000
vt 0.500000 0.000000
vt 0.500000 0.250000
vt 0.500000 0.500000
vt 0.500000 0.750000
vt 0.562500 1.000000
vt 0.562500 0.000000
vt 0.562500 0.250000
vt 0.562500 0.500000
vt 0.562500 0.750000
vt 0.437500 0.250000
vt 0.437500 0.500000
vt 0.437500 0.750000
vt 0.437500 1.000000
vt 0.437500 0.000000
vt 0.375000 0.126513
vt 0.125000 0.623487
vt 0.875000 0.623487
vt 0.625000 0.126513
vt 0.375000 0.623487
vt 0.625000 0.623487
vt 0.500000 0.623487
vt 0.500000 0.126513
vt 0.562500 0.623487
vt 0.562500 0.126513
vt 0.437500 0.126513
vt 0.437500 0.623487
s 1
f 28/39/1 22/33/2 4/9/3 14/22/4
f 14/22/4 4/9/3 8/14/5 15/23/6
f 27/38/7 24/35/8 6/12/9 16/24/10
f 16/24/10 6/12/9 2/4/11 13/20/12
f 21/31/13 23/34/14 5/11/15 1/1/16
f 24/35/8 22/32/2 2/5/11 6/12/9
f 19/27/17 12/19/18 9/15/19 20/28/20
f 30/41/21 25/36/22 12/19/18 19/27/17
f 17/25/23 10/17/24 11/18/25 18/26/26
f 29/40/27 26/37/28 10/17/24 17/25/23
f 12/19/18 16/24/10 13/20/12 9/15/19
f 25/36/22 27/38/7 16/24/10 12/19/18
f 10/17/24 14/22/4 15/23/6 11/18/25
f 26/37/28 28/39/1 14/22/4 10/17/24
f 21/30/13 29/40/27 17/25/23 3/7/29
f 3/7/29 17/25/23 18/26/26 7/13/30
f 23/34/14 30/41/21 19/27/17 5/11/15
f 5/11/15 19/27/17 20/28/20 1/2/16
f 7/13/30 18/26/26 30/41/21 23/34/14
f 1/3/16 20/29/20 29/40/27 21/30/13
f 9/16/19 13/21/12 28/39/1 26/37/28
f 11/18/25 15/23/6 27/38/7 25/36/22
f 20/29/20 9/16/19 26/37/28 29/40/27
f 18/26/26 11/18/25 25/36/22 30/41/21
f 8/14/5 4/10/3 22/32/2 24/35/8
f 3/8/29 7/13/30 23/34/14 21/31/13
f 15/23/6 8/14/5 24/35/8 27/38/7
f 13/21/12 2/6/11 22/33/2 28/39/1
